<svg width="152" height="196" viewBox="0 0 152 196" fill="none" xmlns="http://www.w3.org/2000/svg">
<path d="M79.145 194.908C89.365 195.798 98.135 192.798 105.745 187.348C106.215 187.358 106.605 187.258 106.835 186.878C107.885 186.628 108.555 185.938 109.335 185.388C110.245 185.468 110.715 184.798 111.425 184.538C112.125 184.648 112.475 184.328 112.695 183.838C112.845 183.838 112.995 183.818 113.125 183.768C114.405 183.778 115.085 183.128 115.545 182.228C115.995 182.218 116.355 182.078 116.555 181.718C119.285 180.858 121.375 179.348 122.895 177.268C123.235 176.488 123.925 175.978 124.765 175.598C125.765 175.598 126.325 175.178 126.485 174.358C128.225 172.548 130.715 171.238 131.595 168.858C132.395 168.518 133.215 168.188 133.205 167.268C134.095 167.088 134.765 166.738 134.785 165.858C135.365 165.208 135.975 164.568 136.175 163.738C137.145 163.658 137.315 163.078 137.315 162.398C137.765 161.938 138.125 161.438 138.125 160.808C139.145 160.478 139.625 159.818 139.685 158.908C139.785 158.508 139.895 158.118 139.995 157.718C140.185 157.528 140.385 157.328 140.575 157.138C140.645 157.058 140.665 156.968 140.635 156.878C141.225 156.728 141.655 156.458 141.595 155.858C142.315 154.228 143.045 152.608 143.765 150.978C146.465 147.308 147.475 143.118 148.545 138.948C148.835 137.738 149.135 136.538 149.425 135.328C150.485 134.268 150.075 132.948 150.185 131.718C150.305 130.648 150.435 129.588 150.555 128.518C151.385 127.968 151.135 127.138 151.225 126.408C152.115 119.718 151.215 113.108 149.935 106.428C147.975 96.168 144.115 86.388 139.845 76.668C139.555 75.998 139.205 75.198 138.275 74.838C138.275 73.508 137.415 72.398 136.815 71.218C136.205 69.818 135.835 68.328 134.515 67.208C134.555 67.098 134.535 66.988 134.485 66.878C134.525 66.298 134.155 65.948 133.535 65.758C133.505 65.488 133.475 65.228 133.455 64.958C133.575 64.378 133.185 64.058 132.605 63.838C132.315 63.198 132.075 62.538 131.725 61.928C128.675 56.498 125.065 51.328 121.435 46.148C116.835 39.588 111.285 33.678 105.275 28.028C100.565 23.598 95.9851 19.058 92.1851 14.018C90.3251 11.548 88.4651 9.078 86.5951 6.608C82.9351 3.448 78.245 1.94801 73.395 1.11801C70.755 0.668005 68.065 -0.581983 65.235 0.318017C63.605 0.0980175 61.965 -0.0819972 60.335 0.178003C59.925 -0.0619972 59.5451 -0.0519813 59.2251 0.288019C58.8651 0.288019 58.495 0.288019 58.135 0.288019C57.695 0.138019 57.315 0.21801 57.005 0.49801C56.465 0.51801 55.915 0.527998 55.375 0.547998C53.145 0.187998 51.0951 0.947998 49.0251 1.298C44.3951 2.078 39.695 2.788 35.635 4.988C35.515 4.968 35.395 4.98802 35.295 5.03802C34.505 5.00802 33.7851 5.08802 33.4751 5.81802C32.8651 6.19802 32.255 6.58802 31.645 6.97802C27.495 8.66802 24.5151 11.408 22.0351 14.598C18.7551 17.878 16.075 21.488 14.015 25.418C12.795 27.038 11.9151 28.808 11.1551 30.618C8.82506 34.288 7.42502 38.268 5.99502 42.238C5.69502 43.738 4.83501 45.138 4.92501 46.718C4.42501 47.088 4.44505 47.598 4.46505 48.098C3.74505 49.528 3.28506 51.008 3.40506 52.598C3.38506 52.898 3.37501 53.208 3.35501 53.508C3.12501 54.558 2.88506 55.618 2.65506 56.668C2.60506 56.818 2.56504 56.968 2.51504 57.118C2.21504 59.088 1.91502 61.058 1.61502 63.028C0.415017 67.838 0.115046 72.718 0.395046 77.658C0.395046 78.558 0.395046 79.468 0.395046 80.368C0.045046 81.698 -0.354971 83.028 0.565029 84.348C0.545029 85.028 0.515022 85.718 0.495022 86.398C-0.0249784 87.158 -0.0349906 87.918 0.545009 88.678C0.585009 89.288 0.615056 89.898 0.655056 90.508C0.285056 92.478 0.485066 94.438 1.16507 96.368C1.27507 96.178 1.35502 95.988 1.43502 95.808C1.36502 95.998 1.27507 96.178 1.16507 96.368C1.17507 96.588 1.19504 96.808 1.20504 97.028C1.23504 101.568 1.73505 106.058 3.14505 110.488C3.19505 110.818 3.24501 111.148 3.29501 111.478C3.32501 112.918 3.24503 114.368 4.19503 115.688C4.29503 116.008 4.38501 116.328 4.48501 116.638C4.42501 119.228 5.29505 121.688 6.27505 124.128C6.36505 124.458 6.45502 124.778 6.55502 125.108C6.48502 126.548 6.81503 127.898 7.81503 129.118C7.86503 129.358 7.92506 129.588 7.97506 129.828C7.93506 131.338 8.50505 132.688 9.58505 133.898C9.63505 134.128 9.68502 134.358 9.74502 134.588C9.69502 135.228 9.93502 135.778 10.495 136.228C10.605 136.478 10.715 136.728 10.815 136.968C10.655 137.488 10.9451 137.868 11.4051 138.178C11.4951 138.408 11.5751 138.648 11.6651 138.878C11.5851 140.138 12.4651 141.068 13.2751 142.018C13.3851 142.258 13.495 142.488 13.605 142.728C14.485 145.468 15.945 147.968 18.075 150.188C18.225 150.448 18.365 150.708 18.515 150.958C18.325 151.448 18.535 151.768 19.105 151.958C19.325 152.548 19.735 153.028 20.325 153.418C20.325 154.218 20.545 154.928 21.585 155.238C21.835 155.608 22.0951 155.968 22.3451 156.338C24.1151 159.788 26.715 162.738 29.935 165.328C30.715 167.458 32.2051 169.118 34.5351 170.218C34.9051 170.568 35.275 170.908 35.645 171.258C35.995 172.618 36.825 173.588 38.575 173.788C38.775 173.968 38.975 174.138 39.175 174.318C39.165 174.868 39.505 175.158 40.135 175.228C40.335 175.428 40.545 175.628 40.745 175.828C40.745 176.578 41.325 176.848 42.085 176.958C42.325 177.358 42.6151 177.718 43.1651 177.858L43.145 177.918C44.395 179.678 46.265 180.868 48.295 181.898C48.545 182.008 48.795 182.118 49.045 182.228C50.145 183.938 51.845 185.018 53.985 185.638L54.065 185.698C54.125 186.478 54.735 186.658 55.505 186.658C56.215 187.058 56.925 187.468 57.635 187.868C58.235 189.038 59.315 189.558 60.765 189.598C61.265 190.058 61.935 190.168 62.605 190.258C64.415 191.898 66.785 192.358 69.245 192.648C69.615 192.748 69.985 192.858 70.355 192.958C72.945 194.768 76.225 194.648 79.125 194.898L79.145 194.908ZM51.985 6.458C52.755 6.498 53.605 6.83799 54.335 6.69799C53.615 6.84799 52.755 6.498 51.985 6.458ZM95.245 177.198C94.875 177.498 94.455 177.658 94.005 177.758C94.455 177.648 94.875 177.488 95.245 177.198ZM94.6751 175.428C94.7451 174.798 94.815 174.168 94.895 173.548C94.825 174.178 94.7551 174.808 94.6751 175.428ZM119.625 165.508C119.245 165.908 118.745 166.228 118.305 166.578C118.755 166.228 119.245 165.908 119.625 165.508C120.785 165.088 121.925 164.598 123.085 164.358C121.925 164.598 120.775 165.088 119.625 165.508ZM83.625 156.208C83.625 156.318 83.645 156.418 83.705 156.508C83.645 156.418 83.615 156.318 83.625 156.208C82.835 155.958 81.8951 155.818 81.7251 155.088C81.8951 155.818 82.835 155.948 83.625 156.208ZM80.365 150.708C82.765 149.168 82.835 147.418 81.835 145.568C82.835 147.418 82.765 149.178 80.365 150.708ZM113.595 152.568C113.615 152.718 113.635 152.878 113.685 153.018C113.635 152.878 113.605 152.718 113.595 152.568ZM114.225 151.708C114.195 151.988 114.105 152.248 113.875 152.418C114.105 152.238 114.185 151.988 114.225 151.708C115.195 151.648 115.775 151.368 116.115 150.938C115.775 151.358 115.195 151.648 114.225 151.708ZM80.995 144.268C80.995 144.128 80.9851 143.988 80.9751 143.848C80.9751 143.988 80.975 144.128 80.995 144.268ZM128.925 148.298C128.575 148.278 128.215 148.228 127.995 148.018C128.215 148.218 128.575 148.278 128.925 148.298C129.305 148.298 129.605 148.218 129.845 148.068C129.605 148.218 129.305 148.308 128.925 148.298ZM78.615 139.958C78.765 139.658 79.005 139.478 79.275 139.338C78.995 139.478 78.765 139.668 78.615 139.958ZM79.505 125.758C79.435 125.438 79.325 125.138 79.205 124.838C79.325 125.128 79.435 125.438 79.505 125.758ZM119.615 126.408C119.475 126.998 119.615 127.588 119.915 128.038C119.615 127.588 119.485 126.988 119.615 126.408ZM78.835 124.138C78.205 123.138 77.2051 122.328 75.7251 121.778C77.2051 122.338 78.205 123.138 78.835 124.138ZM72.5951 120.558C72.6751 120.568 72.755 120.578 72.825 120.588C72.745 120.588 72.6651 120.568 72.5951 120.558C72.8751 119.378 73.155 118.198 73.425 117.028C73.155 118.208 72.8751 119.388 72.5951 120.558ZM71.005 107.078C72.025 107.618 73.0951 107.988 74.2251 108.218C73.0951 107.988 72.035 107.618 71.005 107.078ZM74.2251 94.468C73.9251 94.448 73.625 94.428 73.335 94.408C73.625 94.438 73.9251 94.458 74.2251 94.468C74.3851 94.378 74.555 94.298 74.755 94.238C74.555 94.298 74.3751 94.378 74.2251 94.468ZM138.415 91.598C138.255 91.948 138.105 92.298 137.955 92.658C138.105 92.308 138.265 91.958 138.415 91.598C138.675 91.508 138.915 91.418 139.125 91.338C138.905 91.418 138.675 91.508 138.415 91.598ZM71.605 74.008C71.505 74.508 71.2851 74.868 70.9151 75.048C71.2851 74.868 71.505 74.498 71.605 74.008C71.235 73.968 70.865 73.928 70.485 73.878C70.855 73.918 71.225 73.958 71.605 74.008ZM75.245 65.818C74.335 65.278 73.325 64.878 72.385 64.378C73.315 64.878 74.335 65.288 75.245 65.818ZM64.775 44.898C65.545 44.528 66.235 44.038 66.955 43.608C66.235 44.048 65.545 44.528 64.775 44.898ZM63.325 29.568C63.835 29.998 64.3151 30.268 64.7851 30.378C64.3151 30.258 63.835 29.998 63.325 29.568ZM67.295 8.268C66.955 8.558 66.675 8.888 66.445 9.238C66.665 8.888 66.955 8.568 67.295 8.268ZM50.9751 8.25802C50.8451 8.64802 50.635 8.92801 50.335 9.02801C50.635 8.92801 50.8351 8.64802 50.9751 8.25802ZM57.365 9.27801C56.935 9.20801 56.645 9.03801 56.485 8.83801C56.655 9.03801 56.945 9.20801 57.365 9.27801ZM56.385 11.218C56.155 11.408 56.0751 11.688 56.0351 11.978C56.0851 11.688 56.155 11.418 56.385 11.218ZM58.6551 12.618C59.0751 12.128 59.355 11.548 59.705 11.018C59.355 11.558 59.0751 12.128 58.6551 12.618ZM84.605 16.648C85.345 18.368 86.085 20.088 87.125 21.678C86.085 20.098 85.345 18.378 84.605 16.648ZM37.445 12.188C38.035 12.288 38.455 12.488 38.695 12.778C38.455 12.478 38.045 12.278 37.445 12.188ZM63.445 15.298C62.935 16.018 63.345 16.728 63.675 17.448C63.335 16.728 62.935 16.018 63.445 15.298ZM24.825 12.968C24.825 12.968 24.855 12.948 24.865 12.928C24.855 12.938 24.835 12.958 24.825 12.968ZM63.615 19.468C63.285 19.408 62.955 19.358 62.615 19.298C62.995 18.048 62.2951 17.138 61.5351 16.248C62.2851 17.138 62.995 18.048 62.615 19.298C62.945 19.358 63.275 19.408 63.615 19.468ZM26.335 20.928C26.205 21.148 26.0351 21.318 25.8451 21.438C26.0351 21.308 26.205 21.138 26.335 20.928ZM24.375 24.898C24.465 23.838 24.555 22.778 24.635 21.708C24.545 22.768 24.455 23.828 24.375 24.888C25.275 25.188 25.7751 25.588 26.0251 26.058C25.7851 25.578 25.285 25.188 24.375 24.888V24.898ZM23.315 29.018C23.495 29.378 23.595 29.738 23.615 30.098C23.615 30.218 23.625 30.338 23.615 30.458C23.615 30.338 23.615 30.218 23.615 30.098C23.585 29.738 23.495 29.378 23.315 29.018ZM40.315 29.938C40.265 30.248 40.225 30.558 40.175 30.858C40.225 30.548 40.265 30.238 40.315 29.938ZM39.1651 30.758C39.2151 30.558 39.2251 30.358 39.2151 30.168C39.2351 30.358 39.215 30.548 39.175 30.758H39.1651ZM4.86502 48.568C4.76502 48.458 4.66504 48.338 4.57504 48.228C4.67504 48.338 4.77502 48.458 4.86502 48.568C4.95502 48.658 5.03506 48.748 5.09506 48.838C5.02506 48.748 4.94502 48.658 4.86502 48.568ZM17.855 50.128C17.935 49.218 18.005 48.298 18.085 47.388C18.025 47.318 17.9651 47.248 17.9051 47.178C17.9651 47.248 18.035 47.318 18.085 47.388C18.005 48.298 17.935 49.218 17.855 50.128C17.835 50.438 17.8151 50.738 17.7751 51.038C17.8151 50.738 17.835 50.428 17.855 50.128ZM4.17501 50.838C4.29501 50.688 4.41506 50.528 4.53506 50.368C4.41506 50.528 4.29501 50.678 4.17501 50.838ZM4.66507 51.338C4.59507 51.558 4.50503 51.768 4.37503 51.948C4.49503 51.768 4.58507 51.558 4.66507 51.338ZM37.395 61.488C38.265 61.198 39.235 61.168 39.945 60.638C39.235 61.168 38.265 61.208 37.395 61.488ZM1.74502 65.848C2.34502 66.668 2.32502 67.508 2.18502 68.348C2.32502 67.518 2.34502 66.678 1.74502 65.848ZM42.9751 75.258C43.7851 75.378 44.5951 75.548 45.2851 74.918C44.5951 75.548 43.7751 75.378 42.9751 75.258ZM0.935024 75.858C1.01502 75.898 1.06502 75.928 1.11502 75.968C1.06502 75.938 1.01502 75.898 0.935024 75.858ZM45.985 98.978C45.535 98.468 44.9751 98.148 44.3451 97.978C44.9751 98.138 45.535 98.468 45.985 98.978ZM48.9151 103.338C48.7051 103.478 48.505 103.618 48.295 103.748C48.505 103.608 48.7051 103.468 48.9151 103.338ZM49.375 117.918C49.705 118.028 50.045 118.128 50.375 118.248C50.045 118.138 49.715 118.028 49.375 117.918ZM51.645 118.018C51.775 118.128 51.915 118.228 52.065 118.338C52.225 118.358 52.3751 118.388 52.5251 118.408C52.3751 118.378 52.215 118.358 52.065 118.338C51.915 118.238 51.785 118.128 51.645 118.018ZM55.805 132.388C54.545 131.328 53.4551 130.188 52.7151 128.878C53.4451 130.188 54.535 131.328 55.805 132.388ZM59.305 146.888C60.555 146.948 61.405 146.318 62.335 144.958C61.415 146.318 60.555 146.948 59.305 146.888ZM64.305 148.418C64.115 147.698 64.015 146.948 63.695 146.278C64.025 146.938 64.115 147.698 64.315 148.418H64.305ZM49.485 167.858C49.895 167.908 50.1351 168.038 50.2851 168.208C50.1451 168.038 49.895 167.908 49.485 167.858ZM54.815 169.238C54.655 169.718 54.5051 170.098 54.3451 170.398C54.4951 170.098 54.645 169.718 54.815 169.238ZM51.4651 169.888C51.5451 169.698 51.555 169.478 51.555 169.248C51.555 169.478 51.5551 169.698 51.4651 169.888ZM91.265 174.048C91.705 173.558 92.045 172.998 92.265 172.398C91.905 171.908 91.5551 171.428 91.1951 170.938C91.0351 170.918 90.885 170.908 90.725 170.908C90.455 170.858 90.1751 170.798 89.9051 170.748C86.1151 170.688 82.515 171.618 78.805 171.978C78.575 171.868 78.355 171.758 78.125 171.648C77.785 171.618 77.4351 171.588 77.0951 171.568C76.9451 171.568 76.7951 171.568 76.6651 171.578C76.7951 171.568 76.9351 171.558 77.0951 171.568C77.4351 171.598 77.785 171.628 78.125 171.648C76.865 169.478 75.835 167.188 74.275 165.188C72.595 163.028 71.185 160.888 70.885 158.298C70.775 157.418 70.3651 156.508 69.2851 156.018L69.215 155.998C68.175 154.378 66.035 153.958 64.485 152.888C64.475 152.758 64.405 152.658 64.275 152.578C63.975 152.538 63.675 152.498 63.375 152.458C63.675 152.498 63.9751 152.538 64.2851 152.578C63.9551 151.108 65.495 149.918 65.025 148.428C65.255 146.028 64.245 144.348 61.385 143.388C57.675 142.128 57.095 140.408 59.175 137.738C61.105 135.258 60.0951 132.388 56.8451 131.048C53.4051 129.628 52.7351 127.368 54.9751 124.768C57.0451 122.358 57.015 120.798 54.865 118.968L54.825 118.918C54.805 118.368 54.285 118.178 53.825 117.928C50.035 115.798 49.675 113.388 52.735 110.638C55.435 108.208 54.4151 104.938 50.5251 103.538C50.4551 103.428 50.335 103.368 50.185 103.368C49.195 101.588 49.555 99.718 49.445 97.878C49.995 97.148 51.0751 96.768 51.3451 95.848C51.5951 95.448 51.8451 95.038 52.0951 94.638C52.8051 94.218 53.045 93.728 52.325 93.108C52.515 92.578 52.355 92.098 51.935 91.668C51.475 90.148 50.045 89.538 48.485 89.038C48.435 88.818 48.375 88.588 48.325 88.368C47.905 88.158 47.495 87.938 47.075 87.728C45.955 89.038 45.385 89.298 44.375 88.258C45.385 89.298 45.955 89.048 47.075 87.728C47.495 87.948 47.905 88.158 48.325 88.368C47.995 86.288 48.245 84.248 48.505 82.198C49.265 81.398 50.685 80.918 50.245 79.538C50.265 79.238 50.285 78.938 50.295 78.638C50.935 77.548 49.905 76.758 49.505 75.848C49.535 75.018 49.035 74.808 48.175 75.018C47.755 74.898 47.3351 74.778 46.9151 74.658C46.8051 74.798 46.685 74.878 46.555 74.928C46.685 74.878 46.8051 74.788 46.9151 74.658C46.6951 74.388 46.485 74.128 46.265 73.858C45.695 71.828 44.455 69.858 45.365 67.718C45.695 67.078 46.745 66.768 46.485 65.868L46.7151 65.948C48.1351 65.418 48.2251 64.778 46.8451 64.038L46.615 64.078C45.925 63.238 45.075 62.628 44.125 62.148C45.075 62.628 45.925 63.228 46.615 64.078C46.885 62.298 45.6851 61.528 43.8451 61.028C39.3951 59.808 38.1851 55.408 41.5251 52.808C43.5351 51.248 43.685 50.038 42.075 48.448C41.295 46.958 39.705 46.318 38.065 45.728C37.645 45.728 37.235 45.718 36.815 45.708C36.205 45.668 35.595 45.648 34.985 45.588C35.595 45.648 36.205 45.658 36.815 45.708C37.235 45.708 37.645 45.718 38.065 45.728C37.565 44.148 37.8651 42.568 37.9751 40.998C38.0751 39.448 39.255 38.678 40.805 38.058C42.645 37.318 43.765 36.158 42.615 34.268C42.315 33.638 42.015 32.998 41.705 32.368C42.435 30.618 43.6351 29.278 45.7751 28.558C47.5051 27.978 48.5851 26.828 49.0351 25.268C52.0251 23.738 55.175 22.458 58.335 21.178C59.975 20.508 61.345 20.568 62.855 21.258C62.875 21.398 62.895 21.538 62.925 21.668C62.785 22.318 62.395 22.998 63.235 23.558C63.175 24.928 63.125 26.298 63.065 27.668C59.855 32.568 60.955 34.738 67.205 35.838C67.465 35.888 67.725 35.968 67.985 36.028C69.685 36.418 71.1351 36.908 71.1651 38.778C71.1851 40.508 70.2251 41.408 68.4051 41.938C66.6251 42.458 64.915 43.118 64.115 44.738V44.758C62.925 44.898 62.635 45.678 62.425 46.508C62.595 48.058 62.545 49.668 64.215 50.798C64.235 52.328 66.005 52.408 66.995 53.038C68.805 54.178 69.025 55.388 68.305 57.008C67.905 57.918 67.075 58.428 66.355 59.078C64.055 61.118 64.2951 64.168 66.8451 65.648C66.9451 65.748 67.065 65.818 67.215 65.858C67.415 66.158 67.615 66.448 67.805 66.748C67.965 67.358 68.135 67.968 68.295 68.578C68.755 70.758 68.265 72.908 68.185 75.068C68.095 75.348 68.0051 75.628 67.9151 75.918C66.3851 77.068 66.285 78.318 67.625 79.698C67.675 79.838 67.715 79.968 67.755 80.108C68.225 82.628 68.115 85.128 67.495 87.578C67.275 88.458 66.645 89.258 67.305 90.188C67.065 91.548 66.375 92.888 67.175 94.288C66.815 98.878 65.585 103.458 67.455 108.068C67.595 108.408 67.515 108.828 67.455 109.198C67.065 111.968 67.695 114.718 67.885 117.468C67.925 118.008 68.275 118.298 68.875 118.418C68.775 119.478 68.7351 120.518 68.2251 121.538C67.7851 122.428 67.205 123.508 67.455 124.368C68.285 127.148 68.435 129.978 68.995 132.768C70.275 139.128 73.585 144.998 76.305 151.008C76.375 151.158 76.765 151.218 77.005 151.308C77.065 152.568 78.215 153.308 79.015 154.208C80.045 157.798 83.415 159.898 86.335 162.278C86.385 162.548 86.445 162.808 86.495 163.078C86.415 163.968 86.655 164.738 87.745 165.158L87.875 165.128C87.875 166.478 88.365 167.678 89.585 168.628C89.595 168.758 89.645 168.878 89.715 168.988C89.765 169.578 89.815 170.158 89.865 170.748C90.135 170.808 90.4051 170.858 90.6851 170.908C90.8451 170.908 90.9951 170.918 91.1551 170.938C91.2151 170.778 91.275 170.618 91.345 170.468C91.285 170.628 91.2251 170.788 91.1551 170.938C91.5151 171.428 91.865 171.908 92.225 172.398C92.005 172.998 91.665 173.548 91.225 174.048C90.785 174.538 90.245 174.978 89.635 175.338C90.245 174.968 90.785 174.538 91.225 174.048H91.265ZM96.2951 177.708C96.4651 177.868 96.6051 178.048 96.6951 178.278C97.2851 178.418 97.685 178.688 97.875 179.038C97.685 178.688 97.2851 178.408 96.6951 178.278C96.5951 178.048 96.4551 177.868 96.2951 177.708ZM75.525 176.498C75.395 176.908 75.425 177.388 75.445 177.868C75.425 177.388 75.395 176.898 75.525 176.498ZM78.245 187.298C79.005 187.418 79.785 187.468 80.585 187.528C80.645 187.368 80.6551 187.178 80.7251 187.028C80.6551 187.178 80.635 187.368 80.585 187.528C79.785 187.478 79.005 187.428 78.245 187.298Z" fill="#EDB153"/>
</svg>
