<svg width="148" height="197" viewBox="0 0 148 197" fill="none" xmlns="http://www.w3.org/2000/svg">
<path d="M66.0033 196.105C76.0484 198.219 85.1121 196.29 93.3199 191.789C93.7839 191.861 94.1831 191.796 94.4527 191.457C95.5167 191.337 96.2699 190.738 97.1196 190.277C98.0218 190.47 98.5632 189.866 99.3053 189.691C99.9862 189.883 100.381 189.609 100.652 189.144C100.804 189.158 100.95 189.154 101.089 189.13C102.362 189.299 103.114 188.733 103.674 187.891C104.129 187.935 104.497 187.838 104.738 187.508C107.552 186.984 109.809 185.735 111.567 183.849C112.002 183.111 112.741 182.695 113.629 182.421C114.624 182.543 115.226 182.192 115.485 181.395C117.435 179.814 120.053 178.807 121.217 176.543C122.055 176.306 122.905 176.076 122.998 175.153C123.9 175.085 124.611 174.815 124.742 173.943C125.397 173.366 126.077 172.801 126.377 172.001C127.354 172.035 127.585 171.478 127.675 170.808C128.176 170.406 128.598 169.955 128.669 169.324C129.715 169.114 130.281 168.523 130.447 167.63C130.596 167.246 130.749 166.871 130.899 166.487C131.116 166.313 131.336 166.148 131.544 165.976C131.627 165.907 131.653 165.825 131.632 165.727C132.237 165.649 132.692 165.429 132.708 164.826C133.624 163.293 134.533 161.773 135.449 160.24C138.574 156.917 140.072 152.877 141.645 148.875C142.082 147.717 142.516 146.548 142.953 145.39C144.137 144.464 143.881 143.107 144.145 141.899C144.397 140.852 144.643 139.818 144.895 138.771C145.78 138.319 145.631 137.463 145.813 136.754C147.498 130.218 147.398 123.55 146.922 116.761C146.207 106.342 143.553 96.166 140.473 86.0012C140.259 85.303 140.013 84.4684 139.126 83.9965C139.281 82.6764 138.567 81.4665 138.12 80.2343C137.681 78.7682 137.496 77.2417 136.312 75.9726C136.361 75.8625 136.359 75.7581 136.322 75.6438C136.433 75.0727 136.109 74.6832 135.517 74.4107C135.527 74.1452 135.524 73.8732 135.533 73.6076C135.72 73.0437 135.373 72.6823 134.829 72.3946C134.615 71.7281 134.459 71.0432 134.185 70.3854C131.803 64.6276 128.844 59.0656 125.859 53.4907C122.082 46.4266 117.28 39.901 111.993 33.5628C107.847 28.5912 103.854 23.5391 100.678 18.0884C99.1274 15.4141 97.5738 12.7303 96.0233 10.056C92.7754 6.47676 88.2859 4.42971 83.571 3.02203C81.0055 2.25887 78.4777 0.696031 75.5682 1.25085C73.9759 0.837252 72.3736 0.45834 70.7157 0.527853C70.33 0.241963 69.9604 0.202947 69.6059 0.505637C69.2458 0.463553 68.8858 0.42147 68.5162 0.382439C68.0948 0.181526 67.718 0.218311 67.3642 0.45776C66.824 0.410445 66.2838 0.363129 65.7405 0.306291C63.5655 -0.319554 61.4503 0.19061 59.3398 0.289714C54.6536 0.511043 49.8893 0.652401 45.6006 2.34252C45.484 2.3064 45.3701 2.31142 45.2558 2.34806C44.4698 2.22202 43.7456 2.22319 43.3455 2.90802C42.6874 3.21355 42.0418 3.52555 41.3963 3.83755C37.0691 5.01491 33.7877 7.39021 30.9339 10.248C27.2862 13.1187 24.1908 16.369 21.6693 20.0338C20.2579 21.4945 19.1795 23.1424 18.2143 24.8486C15.4592 28.2103 13.5942 31.9902 11.6945 35.7602C11.2161 37.2158 10.1893 38.5006 10.0984 40.084C9.55722 40.394 9.51674 40.89 9.46979 41.3987C8.58479 42.7326 7.94553 44.1452 7.87977 45.7415C7.82889 46.0413 7.77801 46.3412 7.71761 46.6441C7.36122 47.6615 7.00486 48.6789 6.63895 49.6993C6.58036 49.8441 6.5092 49.9824 6.45061 50.1272C5.92253 52.0503 5.38185 53.9669 4.85377 55.8899C3.08336 60.5216 2.19955 65.3311 1.893 70.2706C1.7815 71.1674 1.67958 72.0612 1.57113 72.9676C1.06631 74.2426 0.507756 75.5139 1.25984 76.9424C1.15088 77.618 1.05141 78.2905 0.942451 78.966C0.33367 79.6547 0.23012 80.4125 0.717088 81.2435C0.681623 81.8535 0.646173 82.4634 0.601184 83.0764C-0.0027109 84.9923 -0.0443042 86.9589 0.407133 88.9564C0.529325 88.7808 0.642033 88.6081 0.742127 88.429C0.651555 88.605 0.538847 88.7777 0.407133 88.9564C0.392016 89.1713 0.379961 89.3957 0.364844 89.6106C0.467776 89.7351 0.548606 89.8562 0.610395 89.9834C0.539083 89.8593 0.458254 89.7382 0.364844 89.6106C-0.14234 94.1208 -0.194236 98.6426 0.680005 103.203C0.692003 103.536 0.694451 103.871 0.706449 104.203C0.566681 105.634 0.300427 107.064 1.09365 108.49C1.15632 108.816 1.20945 109.145 1.27212 109.472C0.897932 112.039 1.46968 114.575 2.14887 117.119C2.20201 117.449 2.25823 117.788 2.30185 118.121C2.06416 119.541 2.22226 120.918 3.07029 122.253C3.09595 122.497 3.12165 122.741 3.14426 122.975C2.92795 124.462 3.3261 125.868 4.24995 127.21C4.27256 127.444 4.29516 127.678 4.32729 127.91C4.20307 128.537 4.36721 129.115 4.87991 129.633C4.96235 129.89 5.03524 130.15 5.10815 130.411C4.89052 130.911 5.12622 131.318 5.54892 131.687C5.60621 131.931 5.66349 132.175 5.72078 132.419C5.48832 133.66 6.24815 134.687 6.93829 135.726C7.01767 135.973 7.09705 136.221 7.17643 136.468C7.72282 139.286 8.87182 141.953 10.7221 144.415C10.8422 144.692 10.9498 144.962 11.07 145.238C10.8276 145.694 10.9942 146.05 11.5354 146.297C11.6896 146.909 12.0377 147.438 12.5702 147.887C12.4789 148.683 12.616 149.405 13.5977 149.847C13.8082 150.241 14.0092 150.639 14.2197 151.033C15.5631 154.667 17.7807 157.915 20.6816 160.87C21.2002 163.077 22.479 164.904 24.6612 166.273C24.9856 166.663 25.3195 167.049 25.644 167.439C25.8272 168.829 26.536 169.894 28.2548 170.309C28.4328 170.504 28.6044 170.711 28.7824 170.906C28.7065 171.455 29.0096 171.778 29.6246 171.928C29.8023 172.154 29.9895 172.378 30.1641 172.595C30.0795 173.347 30.6165 173.678 31.3637 173.88C31.5548 174.312 31.7939 174.698 32.3228 174.906L32.2874 174.959C33.3251 176.853 35.0261 178.261 36.9248 179.532C37.1603 179.677 37.3929 179.812 37.6284 179.957C38.5182 181.783 40.0721 183.059 42.1272 183.934L42.1992 183.995C42.165 184.772 42.7503 185.026 43.5176 185.126C44.1762 185.608 44.8283 186.103 45.4869 186.585C45.9345 187.817 46.9517 188.467 48.3945 188.677C48.8314 189.188 49.4807 189.379 50.1365 189.557C51.7376 191.406 54.0345 192.151 56.444 192.722C56.7965 192.872 57.149 193.021 57.511 193.168C59.8651 195.269 63.1351 195.544 65.984 196.143L66.0033 196.105ZM61.6394 5.75875C62.4033 5.88137 63.2109 6.33654 63.9454 6.26907C63.2078 6.32702 62.4033 5.88137 61.6394 5.75875ZM84.1111 180.46C83.7067 180.705 83.269 180.814 82.8066 180.878C83.2625 180.826 83.7002 180.717 84.1016 180.463L84.1111 180.46ZM84.2039 176.786C84.1873 176.308 84.2621 175.853 84.3906 175.403C84.2621 175.853 84.1903 176.318 84.2039 176.786ZM90.8613 176.752C89.7992 176.714 89.1444 176.997 88.8187 177.553C89.1349 177 89.7992 176.714 90.8613 176.752C90.9852 176.155 91.1091 175.559 91.2425 174.96C91.1186 175.556 90.9947 176.152 90.8613 176.752ZM109.723 171.775C109.298 172.121 108.773 172.384 108.28 172.679C108.764 172.387 109.301 172.131 109.723 171.775ZM75.0909 158.222C74.3391 157.875 73.4215 157.633 73.3384 156.883C73.4185 157.624 74.3391 157.875 75.0909 158.222ZM72.5206 152.367C75.0869 151.135 75.3694 149.395 74.5949 147.438C75.3598 149.398 75.0838 151.125 72.5206 152.367ZM105.287 158.202C105.282 158.35 105.292 158.515 105.329 158.661C105.292 158.515 105.291 158.347 105.287 158.202C104.968 158.125 104.621 158.058 104.347 157.925C104.611 158.061 104.959 158.128 105.287 158.202ZM106.013 157.422C105.944 157.697 105.834 157.942 105.585 158.085C105.83 157.933 105.953 157.694 106.013 157.422C106.99 157.487 107.59 157.263 107.983 156.885C107.59 157.263 106.987 157.478 106.013 157.422ZM105.836 155.494C105.96 154.898 106.087 154.311 106.22 153.712C106.097 154.308 105.96 154.898 105.836 155.494ZM76.8694 147.654C75.8793 147.121 74.8988 146.585 73.9117 146.061C74.9018 146.594 75.8824 147.13 76.8694 147.654ZM121.016 155.805C120.672 155.747 120.316 155.651 120.125 155.418C120.325 155.648 120.672 155.747 121.016 155.805C121.391 155.863 121.699 155.806 121.963 155.68C121.699 155.806 121.401 155.86 121.016 155.805ZM74.6498 127.499C74.6188 127.173 74.5497 126.859 74.4615 126.552C74.5592 126.856 74.6188 127.173 74.6498 127.499ZM74.1822 125.812C73.6822 124.743 72.7788 123.825 71.3798 123.098C72.7788 123.825 73.6726 124.746 74.1822 125.812ZM68.4222 121.505C68.5011 121.521 68.5704 121.541 68.6523 121.567C68.5735 121.551 68.5041 121.531 68.4222 121.505C68.8368 120.374 69.2579 119.231 69.6725 118.1C69.2609 119.24 68.8368 120.374 68.4222 121.505ZM68.4579 107.925C69.4054 108.588 70.4244 109.08 71.5176 109.444C70.4244 109.08 69.4149 108.585 68.4579 107.925ZM73.1701 95.7975C72.8703 95.7466 72.58 95.6926 72.2961 95.6261C72.58 95.6926 72.8798 95.7435 73.1701 95.7975C73.3354 95.7235 73.5164 95.6654 73.7225 95.6204C73.5133 95.6559 73.3324 95.7139 73.1701 95.7975ZM137.24 100.648C137.04 100.974 136.853 101.307 136.656 101.643C136.853 101.307 137.043 100.984 137.24 100.648C137.506 100.594 137.76 100.533 137.982 100.473C137.76 100.533 137.516 100.591 137.24 100.648ZM77.6191 67.4874C76.7821 66.8421 75.8267 66.3188 74.9608 65.7143C75.8298 66.3283 76.7852 66.8516 77.6191 67.4874ZM77.0679 58.2023C76.9744 58.6313 76.8691 58.9906 76.8529 59.3004C76.8596 58.9937 76.9618 58.6249 77.0679 58.2023ZM69.953 46.2961C69.9056 46.0172 69.795 45.7377 69.735 45.4523C69.795 45.7377 69.9151 46.0142 69.953 46.2961ZM110.252 51.0282C109.996 51.3098 109.771 51.5919 109.603 51.8872C109.774 51.6014 109.986 51.3129 110.252 51.0282ZM83.7506 39.4464C83.3439 39.8813 82.8969 40.2557 82.4003 40.541C81.9067 40.8357 81.3571 41.054 80.7514 41.1956C81.3571 41.054 81.9036 40.8262 82.4003 40.541C82.8938 40.2462 83.3439 39.8813 83.7506 39.4464C83.9212 39.4547 84.0793 39.4565 84.2282 39.4298C84.0793 39.4565 83.9243 39.4642 83.7506 39.4464ZM70.5554 28.261C70.7342 28.3927 71.0204 28.532 71.1454 28.6599C71.0078 28.5255 70.7246 28.3958 70.5459 28.2641C70.483 28.2317 70.4137 28.2119 70.3348 28.1952C70.4042 28.215 70.4735 28.2348 70.5459 28.2641L70.5554 28.261ZM76.6353 9.39384C76.2625 9.6394 75.9365 9.93294 75.683 10.2558C75.9491 9.93941 76.2656 9.64892 76.6353 9.39384ZM60.4186 7.42085C60.2436 7.79201 60.0002 8.04855 59.6928 8.1051C60.0002 8.04855 60.2436 7.79201 60.4155 7.41132L60.4186 7.42085ZM66.6503 9.20332C66.2342 9.08469 65.9709 8.88559 65.8248 8.65938C65.9709 8.88559 66.2312 9.07517 66.6503 9.20332ZM65.4437 11.0079C65.192 11.1726 65.0877 11.4371 64.9991 11.7175C65.0782 11.4401 65.1825 11.1757 65.4437 11.0079ZM92.8122 19.7913C92.3865 19.4132 91.9607 19.0351 91.5445 18.654C91.9702 19.0321 92.396 19.4101 92.8218 19.7882L92.8122 19.7913ZM46.5217 9.70272C47.0986 9.8643 47.4846 10.1186 47.6928 10.4404C47.4942 10.1155 47.1017 9.87383 46.5217 9.70272ZM71.9622 15.9119C71.8093 15.7298 71.6659 15.5448 71.5131 15.3627C71.5568 15.1387 71.5975 14.9051 71.6316 14.6842C71.5879 14.9082 71.5568 15.1387 71.5131 15.3627C71.6659 15.5448 71.8093 15.7298 71.9622 15.9119C71.3728 16.5629 71.6899 17.3223 71.9406 18.0716C71.6994 17.3193 71.3728 16.5629 71.9622 15.9119ZM33.9024 8.96013C33.9024 8.96013 33.9374 8.93839 33.9439 8.92582C33.9249 8.93192 33.9089 8.94755 33.9024 8.96013C33.4689 8.98361 33.1597 9.19828 32.8626 9.45103C33.1501 9.20133 33.4594 8.98666 33.9024 8.96013ZM71.6362 20.0699C71.3115 19.9745 70.9869 19.879 70.6623 19.7836C71.1915 18.5848 70.605 17.6072 69.9648 16.6258C70.605 17.6072 71.1914 18.5848 70.6717 19.7806C70.9963 19.876 71.3211 19.9714 71.6362 20.0699C71.7257 19.9887 71.8055 19.9106 71.8665 19.8386C71.7991 19.9232 71.7287 19.9982 71.6362 20.0699C71.5979 20.3762 71.5596 20.6826 71.5308 20.9858C71.5691 20.6795 71.6074 20.3732 71.6362 20.0699ZM34.4483 17.0497C34.6282 17.0866 34.805 17.1139 34.9753 17.1538C34.7955 17.1169 34.6187 17.0896 34.4483 17.0497ZM32.0214 20.7473C32.2326 19.7029 32.4534 18.6555 32.6676 17.6206C32.4564 18.665 32.2357 19.7124 32.0214 20.7473C32.8769 21.1556 33.3271 21.6098 33.5175 22.1053C33.3366 21.6067 32.8864 21.1525 32.0214 20.7473ZM30.4799 24.7174C30.6211 25.0922 30.6674 25.4659 30.6539 25.8168C30.6644 25.4564 30.6211 25.0922 30.4799 24.7174ZM46.0073 28.3397C46.0792 28.1381 46.113 27.9487 46.1247 27.756C46.1225 27.9457 46.0792 28.1381 46.0073 28.3397ZM9.82132 41.9055C9.89605 42.0076 9.95818 42.1032 10.0203 42.1988C9.9677 42.1001 9.89605 42.0076 9.82132 41.9055ZM22.5304 45.0242C22.7146 44.125 22.8989 43.2258 23.0862 42.3361C23.0396 42.2565 22.9836 42.18 22.9275 42.1035C22.9836 42.18 23.0301 42.2596 23.0862 42.3361C22.9019 43.2353 22.7177 44.1345 22.5304 45.0242C22.4795 45.324 22.4191 45.627 22.3461 45.9234C22.4191 45.627 22.4825 45.3336 22.5304 45.0242ZM24.5599 45.9172C24.6595 46.3263 24.7592 46.7354 24.862 47.154C24.7623 46.7449 24.6626 46.3358 24.5599 45.9172ZM9.28725 44.6286C9.1868 44.8394 9.08022 45.031 8.93288 45.1938C9.08022 45.031 9.19632 44.8363 9.28725 44.6286ZM44.4511 72.9761C45.2361 73.197 46.0237 73.4591 46.7826 72.9112C46.0206 73.4495 45.233 73.1875 44.4511 72.9761ZM2.63724 68.5302C2.70622 68.5816 2.75957 68.617 2.80341 68.6555C2.75957 68.617 2.71269 68.5691 2.63724 68.5302ZM46.7689 110.469C46.8381 110.226 46.9606 110.019 47.1019 109.837C46.9576 110.009 46.835 110.216 46.7689 110.469ZM47.927 116.472C48.0395 116.593 48.174 116.718 48.3055 116.833C48.171 116.709 48.049 116.59 47.927 116.472ZM47.1166 125.08C45.8216 124.939 45.1368 125.358 44.7586 126.078C45.1304 125.37 45.8121 124.942 47.1166 125.08ZM50.3286 131.233C49.1976 130.031 48.257 128.768 47.6848 127.376C48.257 128.768 49.2071 130.028 50.3286 131.233C52.3988 131.893 53.2659 132.665 53.1226 133.855C53.2659 132.665 52.3892 131.896 50.3286 131.233ZM56.8513 148.171C56.7522 147.436 56.7483 146.67 56.4938 145.975C56.7387 146.673 56.7426 147.439 56.8513 148.171ZM39.7971 165.694C40.1976 165.797 40.4267 165.954 40.5479 166.136C40.4236 165.945 40.1976 165.797 39.7971 165.694ZM47.0783 167.802C46.3639 167.768 45.6527 167.744 44.9384 167.711C44.718 168.17 44.5304 168.535 44.3343 168.808C44.5178 168.528 44.718 168.17 44.9384 167.711C45.6527 167.744 46.367 167.778 47.0783 167.802ZM41.5296 167.953C41.6297 167.774 41.6638 167.553 41.698 167.332C41.6764 167.56 41.6392 167.771 41.5296 167.953ZM80.5379 176.848C81.0394 176.414 81.4437 175.907 81.7317 175.331C81.4373 174.806 81.1429 174.281 80.8485 173.756C80.6908 173.722 80.5426 173.686 80.3814 173.674C80.3607 174.101 80.2774 174.464 80.0814 174.737C80.2744 174.454 80.3607 174.101 80.3814 173.674C80.1136 173.592 79.8521 173.497 79.5938 173.412C75.8364 172.895 72.1527 173.393 68.4252 173.297C68.2149 173.165 68.0015 173.023 67.7911 172.891C67.4535 172.821 67.1159 172.75 66.7814 172.69C66.6267 172.666 66.4876 172.658 66.3581 172.647C66.4941 172.645 66.6362 172.663 66.7814 172.69C67.119 172.76 67.4566 172.83 67.7911 172.891C66.7993 170.584 66.0424 168.19 64.7455 166.012C63.343 163.669 62.1992 161.378 62.2038 158.773C62.2014 157.881 61.8991 156.938 60.8816 156.319L60.8217 156.296C59.9815 154.56 57.9082 153.891 56.5025 152.651C56.504 152.525 56.4453 152.407 56.3324 152.317C56.036 152.244 55.7395 152.171 55.4496 152.085C55.746 152.158 56.0329 152.234 56.3324 152.317C56.1788 150.823 57.8537 149.823 57.5614 148.289C58.0786 145.939 57.2738 144.15 54.5563 142.847C51.0306 141.153 50.6494 139.374 53.0394 136.97C55.2439 134.74 54.598 131.776 51.5249 130.052C48.2853 128.234 47.8851 125.905 50.4195 123.591C52.7685 121.451 52.9192 119.891 51.0044 117.816L50.9671 117.765C51.0114 117.216 50.524 116.973 50.0975 116.658C46.585 114.088 46.5181 111.652 49.888 109.29C52.8625 107.202 52.2435 103.83 48.5394 101.972C48.4807 101.855 48.3739 101.784 48.2287 101.757C47.4566 99.8728 48.0404 98.0579 48.1532 96.2155C48.7933 95.5587 49.8998 95.3089 50.2799 94.4309C50.5815 94.0612 50.8735 93.6946 51.175 93.3249C51.9379 92.9857 52.234 92.5337 51.5906 91.8369C51.8493 91.3339 51.7443 90.8425 51.3798 90.3608C51.1069 88.7891 49.7559 88.0146 48.2774 87.3335C48.2578 87.1087 48.2257 86.8775 48.2061 86.6527C47.817 86.3889 47.4279 86.1251 47.0388 85.8613C45.7666 87.0358 45.1636 87.2187 44.2978 86.0576C45.1731 87.2156 45.7731 87.0232 47.0388 85.8613C47.4279 86.1251 47.817 86.3889 48.2061 86.6527C48.1322 84.5551 48.6232 82.5494 49.1269 80.5502C49.973 79.8483 51.4502 79.5427 51.1725 78.1196C51.2264 77.8293 51.2773 77.5294 51.3312 77.2391C52.1017 76.2359 51.1697 75.3271 50.8865 74.3782C51.0129 73.5606 50.5385 73.2927 49.6676 73.3934C49.2679 73.2275 48.8651 73.0521 48.4654 72.8862C48.3375 73.0112 48.2103 73.073 48.0769 73.1158C47.9436 73.1585 47.8045 73.1506 47.6624 73.1332C47.8045 73.1506 47.9406 73.149 48.0769 73.1158C48.2103 73.073 48.347 73.0082 48.4654 72.8862C48.2885 72.5964 48.099 72.3001 47.922 72.0103C47.6012 69.9288 46.6007 67.8238 47.7593 65.8036C48.1677 65.2106 49.2419 65.0237 49.0913 64.0954L49.3051 64.2054C50.7765 63.8491 50.945 63.228 49.6682 62.3247L49.4309 62.3378C48.8532 61.4203 48.0707 60.7156 47.1888 60.1267C48.0707 60.7156 48.8501 61.4108 49.4309 62.3378C49.9156 60.6071 48.816 59.6995 47.0502 58.974C42.782 57.2236 42.1032 52.7156 45.7303 50.534C47.9148 49.2245 48.2098 48.0483 46.8007 46.2738C46.2021 44.7014 44.7063 43.8684 43.1466 43.0978C42.7297 43.0424 42.3224 42.984 41.9056 42.9286C41.3124 42.8142 40.6967 42.7281 40.1069 42.5917C40.7032 42.7155 41.3093 42.8047 41.9056 42.9286C42.3224 42.984 42.7297 43.0424 43.1466 43.0978C42.8428 41.4624 43.3315 39.9406 43.6213 38.388C43.9107 36.867 45.1702 36.2426 46.7818 35.7994C48.6948 35.2806 49.946 34.2703 49.0363 32.2517C48.8226 31.5851 48.5898 30.9246 48.3635 30.2516C49.3059 28.6052 50.6572 27.4159 52.8636 26.9605C54.6482 26.5983 55.8649 25.5782 56.5018 24.0928C59.6586 22.9336 62.9325 22.0414 66.219 21.1557C67.9289 20.6915 69.2799 20.9094 70.7026 21.7764C70.7042 21.9125 70.7089 22.058 70.723 22.2004C70.507 22.8368 70.035 23.4607 70.8022 24.1178C70.5843 25.4689 70.3599 26.8325 70.142 28.1835C66.3684 32.6594 67.196 34.9459 73.2689 36.7898C73.5242 36.8654 73.7696 36.9758 74.0215 37.0736C75.6592 37.6616 77.0494 38.329 76.8478 40.1894C76.6636 41.9077 75.5985 42.6798 73.7258 42.9966C71.9008 43.2983 70.115 43.7553 69.1364 45.2557L69.1425 45.2748C67.9345 45.2736 67.5623 46.0125 67.2496 46.8058C67.2348 48.3648 66.9889 49.9558 68.5044 51.2762C68.3384 52.7891 70.0932 53.0876 70.9924 53.8284C72.6561 55.1852 72.7212 56.4035 71.8119 57.9237C71.2992 58.7812 70.4217 59.1886 69.6216 59.7392C67.0937 61.4843 66.9731 64.5474 69.3182 66.3263C69.4055 66.4348 69.5184 66.5247 69.6632 66.5833C69.8272 66.8982 69.9847 67.2258 70.1487 67.5408C70.2427 68.1617 70.3273 68.7857 70.4244 69.4161C70.6203 71.6321 69.8786 73.7077 69.5347 75.8447C70.0334 75.9263 70.5291 75.9984 71.0373 76.077C70.5386 75.9954 70.0429 75.9233 69.5347 75.8447C69.4114 76.1153 69.2881 76.3858 69.1649 76.6564C67.5063 77.6082 67.2612 78.8419 68.4233 80.3701C68.4565 80.5065 68.4833 80.6554 68.507 80.7948C68.6768 83.3552 68.2595 85.8204 67.3469 88.1817C67.0209 89.0319 66.3043 89.7447 66.8462 90.7471C66.439 92.0643 65.5992 93.3102 66.2272 94.8101C65.3215 99.3221 63.5506 103.723 64.849 108.526C64.9429 108.884 64.8182 109.281 64.7159 109.65C63.9955 112.349 64.2954 115.151 64.1529 117.917C64.1277 118.46 64.4308 118.783 65.0168 118.973C64.793 120.011 64.6199 121.043 63.9987 121.988C63.4547 122.814 62.7505 123.827 62.8954 124.705C63.3843 127.572 63.1969 130.394 63.4237 133.231C63.9314 139.694 66.5163 145.922 68.4933 152.219C68.5452 152.381 68.9236 152.481 69.153 152.606C69.0626 153.864 70.1184 154.733 70.8059 155.731C71.3992 159.416 74.4857 161.902 77.111 164.62C77.1332 164.886 77.149 165.165 77.1712 165.431C76.9809 166.311 77.1269 167.094 78.1642 167.643L78.2971 167.632C78.1299 168.977 78.4761 170.221 79.58 171.306C79.5786 171.432 79.6088 171.559 79.6675 171.677C79.645 172.262 79.6255 172.856 79.6029 173.441C79.8613 173.526 80.1322 173.618 80.3906 173.703C80.5453 173.727 80.6999 173.751 80.8577 173.784C80.9353 173.633 81.016 173.492 81.1032 173.338C81.0255 173.489 80.9479 173.64 80.8577 173.784C81.1521 174.309 81.4465 174.834 81.7409 175.36C81.4528 175.935 81.0455 176.433 80.5471 176.877C80.0456 177.31 79.4625 177.686 78.8173 177.967C79.469 177.674 80.0551 177.307 80.5471 176.877L80.5379 176.848ZM70.083 177.648C69.6477 177.273 69.3774 176.856 69.1928 176.411C69.3774 176.856 69.6382 177.276 70.083 177.648ZM85.1001 181.088C85.2404 181.263 85.3678 181.464 85.4346 181.705C86.0046 181.911 86.3709 182.234 86.5186 182.597C86.3774 182.222 86.0141 181.908 85.4346 181.705C85.3582 181.467 85.2435 181.273 85.1001 181.088ZM64.6148 177.396C64.4333 177.779 64.4118 178.269 64.3748 178.743C64.4118 178.269 64.4428 177.776 64.6148 177.396Z" fill="#EDB153"/>
</svg>
