<svg width="164" height="182" viewBox="0 0 164 182" fill="none" xmlns="http://www.w3.org/2000/svg">
<path d="M8.67681 154.894C14.1437 163.583 21.8335 168.754 30.7758 171.521C31.047 171.905 31.3713 172.146 31.802 172.105C32.6286 172.785 33.5825 172.91 34.505 173.2C34.9933 173.983 35.8039 173.952 36.4456 174.363C36.7818 174.986 37.2533 175.079 37.7759 174.951C37.871 175.07 37.9756 175.171 38.0896 175.255C38.8527 176.287 39.7836 176.434 40.7775 176.251C41.0628 176.608 41.3884 176.805 41.7926 176.749C44.1266 178.407 46.5931 179.16 49.1714 179.111C50.0046 178.91 50.8166 179.152 51.6318 179.6C52.2359 180.4 52.9062 180.588 53.6591 180.22C56.1516 180.522 58.6957 181.702 61.1321 180.965C61.885 181.402 62.6419 181.852 63.3693 181.278C64.046 181.878 64.735 182.201 65.4516 181.689C66.3221 181.758 67.2008 181.854 67.9843 181.513C68.6396 182.239 69.2005 182.017 69.7441 181.616C70.3816 181.697 70.9993 181.687 71.5022 181.298C72.3801 181.904 73.1989 181.9 73.9556 181.398C74.3358 181.238 74.7114 181.088 75.0916 180.928C75.368 180.963 75.6397 181.006 75.9073 181.036C76.0144 181.048 76.0915 181.01 76.1475 180.926C76.6246 181.307 77.0984 181.481 77.5437 181.073C79.282 180.665 81.0067 180.261 82.745 179.853C87.3057 179.787 91.2507 178.054 95.2202 176.402C96.3569 175.91 97.4983 175.409 98.6349 174.918C100.123 175.124 100.92 173.997 101.971 173.346C102.899 172.799 103.814 172.257 104.742 171.71C105.681 172.031 106.193 171.33 106.829 170.967C112.698 167.632 117.419 162.922 121.967 157.859C128.956 150.099 134.422 141.116 139.584 131.833C139.938 131.194 140.366 130.437 140.088 129.471C141.144 128.664 141.518 127.31 142.092 126.131C142.84 124.797 143.809 123.602 143.897 121.869C144.01 121.827 144.084 121.753 144.14 121.648C144.628 121.33 144.682 120.826 144.467 120.212C144.664 120.034 144.857 119.842 145.054 119.664C145.59 119.406 145.608 118.906 145.436 118.315C145.767 117.698 146.15 117.109 146.432 116.455C148.913 110.739 150.852 104.744 152.782 98.7223C155.231 91.0954 156.581 83.1069 157.458 74.8994C158.147 68.4628 159 62.08 160.709 56.0072C161.552 53.0332 162.4 50.0504 163.243 47.0764C163.556 42.2533 161.905 37.6037 159.638 33.2367C158.402 30.8625 157.767 27.9592 155.345 26.2544C154.535 24.8226 153.693 23.4077 152.49 22.2647C152.427 21.7888 152.198 21.496 151.734 21.4518C151.514 21.1638 151.293 20.8759 151.064 20.5832C150.916 20.1406 150.627 19.8954 150.209 19.8077C149.867 19.3866 149.526 18.9655 149.189 18.5356C148.126 16.5375 146.288 15.3724 144.749 13.9248C141.331 10.7114 137.916 7.38621 133.719 5.47985C133.664 5.37094 133.581 5.29258 133.475 5.23595C133.019 4.58349 132.515 4.06391 131.744 4.25274C131.067 3.9923 130.394 3.74539 129.721 3.49849C125.866 1.20795 121.877 0.501915 117.838 0.438742C113.239 -0.185869 108.751 -0.149721 104.364 0.587168C102.332 0.588799 100.398 0.959983 98.501 1.45299C94.1693 1.81114 90.1562 3.09978 86.126 4.35663C84.7474 5.02513 83.11 5.18087 81.9091 6.2167C81.3099 6.04344 80.9253 6.35933 80.5272 6.67932C78.9532 6.97105 77.4936 7.49412 76.3008 8.55702C76.0499 8.729 75.7991 8.90098 75.5394 9.06823C74.5605 9.51969 73.5816 9.97117 72.5939 10.4179C72.4491 10.4765 72.3002 10.5216 72.1554 10.5802C70.4063 11.5381 68.6531 12.4825 66.904 13.4405C62.3446 15.3894 58.274 18.0992 54.5114 21.3141C53.7894 21.8577 53.0763 22.406 52.3496 22.9585C51.0823 23.4824 49.7804 23.9651 49.2769 25.4991C48.7157 25.8906 48.1633 26.2868 47.6021 26.6783C46.6838 26.7199 46.0673 27.1725 45.8088 28.1003C45.3459 28.499 44.8829 28.8977 44.4112 29.2917C42.6145 30.1902 41.1724 31.528 40.051 33.2416C40.2622 33.2072 40.4647 33.1681 40.663 33.1155C40.4735 33.1728 40.2711 33.2119 40.051 33.2416C39.8861 33.3802 39.7165 33.5276 39.5516 33.6661C39.5337 33.8267 39.5029 33.969 39.4544 34.1019C39.494 33.9643 39.5249 33.822 39.5516 33.6661C35.9579 36.4383 32.6727 39.5457 30.0034 43.3458C29.773 43.5855 29.5338 43.8204 29.3035 44.06C28.178 44.9548 26.9656 45.7577 26.4926 47.3193C26.3016 47.5914 26.1018 47.8587 25.9108 48.1308C23.8062 49.647 22.3811 51.8219 21.0253 54.0793C20.8255 54.3466 20.621 54.6228 20.4124 54.8854C19.2264 55.7025 18.3465 56.774 17.9772 58.3117C17.8198 58.4997 17.6625 58.6877 17.5099 58.8669C16.2909 59.7457 15.5578 61.0093 15.236 62.6064C15.0834 62.7856 14.9307 62.9648 14.7869 63.1487C14.2493 63.4961 13.9485 64.0156 13.9327 64.7444C13.8053 64.9825 13.6691 65.2158 13.5328 65.4491C13.0219 65.6407 12.8931 66.0935 12.9222 66.6535C12.7866 66.8645 12.651 67.0755 12.5154 67.2864C11.4625 67.9819 11.253 69.2422 10.9864 70.4606C10.8637 70.6898 10.741 70.919 10.6183 71.1482C8.97357 73.5005 7.85658 76.1805 7.37374 79.2228C7.25861 79.5014 7.1394 79.7665 7.02427 80.0452C6.52818 80.188 6.3882 80.5554 6.58735 81.1157C6.25477 81.6523 6.11678 82.2703 6.16455 82.9651C5.52911 83.4529 5.10526 84.054 5.47079 85.0664C5.33367 85.492 5.18772 85.913 5.05061 86.3387C3.37414 89.8308 2.58245 93.6832 2.47618 97.823C1.25094 99.7306 0.827638 101.92 1.36147 104.44C1.30718 104.944 1.26166 105.453 1.20737 105.957C0.335704 107.056 0.0637993 108.305 0.960905 109.829C0.944624 110.092 0.914815 110.36 0.898534 110.624C0.450979 110.951 0.429768 111.393 0.750119 111.939C0.710863 112.224 0.680421 112.514 0.645885 112.791C0.0469491 113.253 0.1819 113.87 0.556758 114.547C0.379035 114.985 0.268346 115.424 0.486375 115.949L0.423423 115.961C-0.215583 118.024 -0.0442412 120.225 0.362944 122.473C0.422535 122.743 0.486875 123.005 0.546466 123.275C-0.146425 125.184 0.0170233 127.188 0.817986 129.273L0.824302 129.367C0.241755 129.883 0.466706 130.48 0.928118 131.101C1.03984 131.91 1.13802 132.722 1.24973 133.531C0.675595 134.709 0.915571 135.892 1.76849 137.075C1.70512 137.744 2.01952 138.344 2.34745 138.939C2.13199 141.375 3.19457 143.544 4.45959 145.673C4.59728 146.03 4.73498 146.387 4.88149 146.749C5.00848 149.902 7.08526 152.443 8.63623 154.907L8.67681 154.894ZM142.419 19.3807C142.862 20.0149 143.096 20.9117 143.656 21.3926C143.101 20.9029 142.862 20.0149 142.419 19.3807ZM32.5125 157.025C32.055 156.905 31.6724 156.666 31.3046 156.378C31.6589 156.67 32.0414 156.909 32.5036 157.02L32.5125 157.025ZM35.2168 154.537C35.5485 154.193 35.9271 153.93 36.3404 153.709C35.9271 153.93 35.5438 154.201 35.2168 154.537ZM39.8714 159.297C39.1596 158.507 38.5006 158.234 37.8745 158.387C38.4918 158.229 39.1596 158.507 39.8714 159.297C40.386 158.971 40.9006 158.645 41.4241 158.324C40.9094 158.65 40.3948 158.976 39.8714 159.297ZM56.5643 169.389C56.0203 169.325 55.4665 169.13 54.9114 168.981C55.4577 169.126 56.0156 169.334 56.5643 169.389ZM42.2186 135.078C41.9451 134.296 41.4805 133.469 41.962 132.888C41.4852 133.46 41.9451 134.296 42.2186 135.078ZM44.6382 129.159C47.3084 130.146 48.7547 129.14 49.6223 127.222C48.7459 129.135 47.3132 130.137 44.6382 129.159ZM63.2329 156.762C63.1228 156.861 63.0119 156.984 62.9323 157.111C63.0119 156.984 63.1316 156.866 63.2329 156.762C63.0663 156.48 62.8732 156.183 62.7783 155.894C62.8644 156.179 63.0575 156.475 63.2329 156.762ZM64.2982 156.742C64.0527 156.883 63.7996 156.974 63.5245 156.895C63.8044 156.965 64.0615 156.888 64.2982 156.742C64.9306 157.489 65.509 157.764 66.0543 157.784C65.509 157.764 64.9353 157.48 64.2982 156.742ZM65.5604 155.274C66.075 154.948 66.585 154.631 67.1084 154.31C66.5938 154.636 66.075 154.948 65.5604 155.274ZM51.049 129.007C50.7436 127.924 50.447 126.847 50.1368 125.773C50.4422 126.856 50.7389 127.933 51.049 129.007ZM75.8942 166.397C75.6964 166.11 75.5175 165.787 75.5526 165.488C75.5263 165.792 75.6964 166.11 75.8942 166.397C76.1137 166.708 76.3682 166.889 76.6428 166.991C76.3682 166.889 76.1225 166.712 75.8942 166.397ZM63.9879 113.395C64.2007 113.146 64.3782 112.878 64.538 112.601C64.387 112.883 64.2007 113.146 63.9879 113.395ZM64.8755 111.885C65.2954 110.783 65.3268 109.495 64.8767 107.984C65.3268 109.495 65.2866 110.778 64.8755 111.885ZM63.9646 104.751C64.0074 104.819 64.0414 104.883 64.0796 104.96C64.0367 104.892 64.0027 104.828 63.9646 104.751C65.0653 104.262 66.1796 103.77 67.2803 103.282C66.1748 103.779 65.0653 104.262 63.9646 104.751ZM73.7471 95.3327C73.93 96.4741 74.2849 97.5488 74.7839 98.5872C74.2849 97.5488 73.9389 96.4788 73.7471 95.3327ZM85.7388 90.2844C85.5669 90.0335 85.4037 89.7874 85.2541 89.5372C85.4037 89.7874 85.5757 90.0382 85.7388 90.2844C85.907 90.3517 86.0745 90.4413 86.2502 90.5581C86.0792 90.4325 85.9117 90.3429 85.7388 90.2844ZM126.812 139.696C126.438 139.78 126.069 139.877 125.69 139.969C126.069 139.877 126.433 139.788 126.812 139.696C127.036 139.85 127.255 139.99 127.453 140.108C127.255 139.99 127.044 139.855 126.812 139.696ZM109.176 73.7928C109.057 72.7426 108.769 71.6921 108.601 70.6495C108.764 71.701 109.052 72.7514 109.176 73.7928ZM115.464 66.9393C115.091 67.1705 114.76 67.3447 114.526 67.5485C114.751 67.34 115.087 67.157 115.464 66.9393ZM119.072 53.5465C119.239 53.3186 119.363 53.0446 119.526 52.8031C119.363 53.0446 119.248 53.3233 119.072 53.5465ZM143.697 85.795C143.317 85.8068 142.958 85.8416 142.629 85.9264C142.953 85.8504 143.308 85.8021 143.697 85.795ZM133.589 58.6974C132.994 58.7076 132.414 58.6468 131.864 58.4883C131.308 58.3386 130.769 58.0954 130.246 57.7588C130.769 58.0954 131.313 58.3298 131.864 58.4883C132.419 58.6379 132.994 58.7076 133.589 58.6974C133.702 58.8258 133.81 58.9406 133.933 59.029C133.81 58.9406 133.697 58.8346 133.589 58.6974ZM132.45 41.4368C132.48 41.6568 132.579 41.9594 132.574 42.1382C132.574 41.9458 132.471 41.6521 132.441 41.4321C132.421 41.3644 132.387 41.3008 132.344 41.2325C132.378 41.2961 132.412 41.3597 132.441 41.4321L132.45 41.4368ZM150.236 32.6843C149.8 32.5872 149.362 32.5571 148.954 32.5994C149.366 32.5706 149.795 32.596 150.236 32.6843ZM140.375 19.6594C139.987 19.7917 139.633 19.7953 139.379 19.6137C139.633 19.7953 139.987 19.7917 140.38 19.6505L140.375 19.6594ZM143.428 25.3769C143.224 24.9954 143.184 24.6677 143.245 24.4055C143.184 24.6677 143.229 24.9866 143.428 25.3769ZM141.292 25.7649C140.999 25.6985 140.737 25.8076 140.473 25.9389C140.728 25.8028 140.99 25.6938 141.292 25.7649ZM154.015 51.5395C153.99 50.9706 153.966 50.4017 153.95 49.8376C153.975 50.4065 153.999 50.9753 154.023 51.5442L154.015 51.5395ZM129.071 11.2605C129.356 11.7874 129.442 12.2416 129.355 12.615C129.451 12.2463 129.351 11.7962 129.071 11.2605ZM142.302 33.8593C142.326 33.6229 142.36 33.3912 142.384 33.1547C142.576 33.0303 142.772 32.8971 142.954 32.768C142.763 32.8924 142.576 33.0303 142.384 33.1547C142.36 33.3912 142.326 33.6229 142.302 33.8593C141.424 33.8886 141.099 34.6446 140.735 35.3458C141.108 34.6493 141.424 33.8886 142.302 33.8593ZM120.828 1.6762C120.828 1.6762 120.868 1.68625 120.882 1.68216C120.864 1.67272 120.842 1.6721 120.828 1.6762C120.51 1.38101 120.141 1.30809 119.752 1.27044C120.132 1.30337 120.501 1.37629 120.828 1.6762ZM139.087 36.5168C138.93 36.2172 138.773 35.9176 138.616 35.6179C139.845 35.1645 140.14 34.0631 140.4 32.9206C140.14 34.0631 139.845 35.1644 138.625 35.6226C138.782 35.9222 138.939 36.2219 139.087 36.5168C139.208 36.5247 139.32 36.5277 139.414 36.5214C139.306 36.5318 139.203 36.5335 139.087 36.5168C138.841 36.7023 138.594 36.8879 138.356 37.0781C138.603 36.8926 138.849 36.7071 139.087 36.5168ZM115.395 7.69444C115.494 7.8493 115.597 7.99535 115.687 8.14549C115.588 7.99063 115.485 7.84458 115.395 7.69444ZM111.05 8.52198C111.948 7.94746 112.854 7.37766 113.746 6.81195C112.849 7.38647 111.943 7.95628 111.05 8.52198C111.352 9.42068 111.339 10.0601 111.115 10.5415C111.347 10.0648 111.361 9.4254 111.05 8.52198ZM107.125 10.1755C106.954 10.5376 106.718 10.8307 106.456 11.065C106.723 10.8219 106.954 10.5376 107.125 10.1755ZM115.321 23.852C115.516 23.7635 115.676 23.6561 115.822 23.5304C115.684 23.6608 115.516 23.7635 115.321 23.852ZM80.4074 7.28443C80.3861 7.4091 80.3606 7.52023 80.3351 7.63137C80.3694 7.52495 80.3861 7.4091 80.4074 7.28443ZM87.0051 18.5856C87.7793 18.0927 88.5536 17.5997 89.3232 17.1156C89.348 17.0268 89.364 16.9333 89.38 16.8398C89.364 16.9333 89.3392 17.0221 89.3232 17.1156C88.5489 17.6085 87.7746 18.1015 87.0051 18.5856C86.7542 18.7576 86.4945 18.9248 86.2308 19.0786C86.4945 18.9248 86.7495 18.7664 87.0051 18.5856ZM87.7748 20.665C87.5502 21.0211 87.3256 21.3773 87.0962 21.7422C87.3208 21.3861 87.5455 21.03 87.7748 20.665ZM78.0793 8.79445C77.858 8.86882 77.6462 8.92555 77.4267 8.93287C77.6462 8.92555 77.8668 8.87354 78.0793 8.79445ZM82.1647 53.7765C82.5518 54.4942 82.9113 55.2424 83.8328 55.4067C82.916 55.2336 82.5566 54.4854 82.1647 53.7765ZM56.2796 20.6385C56.2906 20.7238 56.3023 20.7868 56.3051 20.845C56.3023 20.7868 56.3042 20.7197 56.2796 20.6385ZM56.8356 81.5165C57.0581 81.3974 57.2924 81.3413 57.5212 81.3163C57.2971 81.3325 57.0629 81.3886 56.8356 81.5165ZM53.3275 86.5235C53.3184 86.6888 53.3222 86.8723 53.3308 87.0471C53.3269 86.8635 53.3272 86.6935 53.3275 86.5235ZM46.5781 91.928C45.779 90.8992 45.0017 90.6986 44.2214 90.9274C44.9882 90.7027 45.7702 90.8944 46.5781 91.928ZM44.3904 98.5153C44.4676 96.8666 44.7212 95.3123 45.3233 93.9332C44.7212 95.3123 44.4765 96.8713 44.3904 98.5153C45.3563 100.461 45.4046 101.622 44.4494 102.347C45.4046 101.622 45.3475 100.457 44.3904 98.5153ZM36.7561 114.981C37.2153 114.399 37.7625 113.864 38.0853 113.198C37.7537 113.859 37.2064 114.394 36.7561 114.981ZM12.3038 114.914C12.5086 115.273 12.5547 115.547 12.5084 115.761C12.5594 115.538 12.5086 115.273 12.3038 114.914ZM15.8531 121.612C15.3804 121.075 14.903 120.547 14.4303 120.011C13.9471 120.172 13.5545 120.29 13.2221 120.339C13.5504 120.277 13.9471 120.172 14.4303 120.011C14.903 120.547 15.3756 121.084 15.8531 121.612ZM11.8855 117.73C12.0838 117.677 12.2663 117.548 12.4489 117.419C12.2704 117.561 12.0926 117.682 11.8855 117.73ZM32.6225 151.946C33.283 152.004 33.929 151.942 34.5428 151.749C34.7154 151.172 34.8881 150.595 35.0607 150.018C34.975 149.882 34.8982 149.75 34.7943 149.626C34.4732 149.908 34.1547 150.1 33.8223 150.149C34.1594 150.092 34.4732 149.908 34.7943 149.626C34.667 149.377 34.5532 149.123 34.4348 148.878C32.1935 145.818 29.2735 143.518 26.7506 140.772C26.6992 140.529 26.6525 140.277 26.6011 140.034C26.4169 139.743 26.2326 139.451 26.0436 139.169C25.9532 139.041 25.8622 138.936 25.78 138.835C25.8757 138.931 25.962 139.046 26.0436 139.169C26.2279 139.46 26.4121 139.752 26.6011 140.034C27.5693 137.717 28.7627 135.509 29.4258 133.062C30.1345 130.424 30.9846 128.01 32.8603 126.201C33.4995 125.579 33.9667 124.706 33.7037 123.544L33.6785 123.486C34.3419 121.674 33.3807 119.719 33.2941 117.847C33.386 117.76 33.4297 117.636 33.4158 117.492C33.2621 117.228 33.1084 116.965 32.9682 116.697C33.1219 116.961 33.2668 117.22 33.4158 117.492C34.3829 116.343 36.2656 116.851 37.1646 115.574C39.213 114.312 39.9393 112.489 38.9854 109.63C37.751 105.918 38.7639 104.407 42.1538 104.452C45.2891 104.486 46.9699 101.96 46.0716 98.5531C45.1246 94.9611 46.5199 93.0538 49.9455 93.2655C53.1164 93.4656 54.3425 92.4886 54.5015 89.67L54.5122 89.6077C54.938 89.2571 54.7735 88.7381 54.7031 88.2127C54.1073 83.9012 55.8111 82.1591 59.8517 82.9381C63.4207 83.6235 65.4132 80.8336 64.1721 76.8799C64.2158 76.7559 64.1924 76.63 64.1108 76.5069C64.9278 74.6417 66.6379 73.7989 68.0403 72.5987C68.9573 72.6019 69.9064 73.2233 70.8016 72.8858C71.277 72.8454 71.7435 72.8002 72.2189 72.7597C72.9931 73.0721 73.5239 72.9706 73.5771 72.0236C74.1185 71.8597 74.3986 71.4425 74.4912 70.8456C75.4308 69.5564 75.0478 68.047 74.5089 66.5109C74.6568 66.3405 74.8007 66.1566 74.9486 65.9862C74.8675 65.5232 74.7864 65.0601 74.7054 64.597C72.9767 64.4997 72.426 64.1936 72.6581 62.7639C72.4348 64.1983 72.9902 64.4956 74.7054 64.597C74.7864 65.0601 74.8675 65.5232 74.9486 65.9862C76.4044 64.4743 78.1871 63.4323 79.974 62.4038C81.0668 62.5237 82.3137 63.3727 83.1432 62.1833C83.3893 62.0202 83.6401 61.8482 83.8862 61.685C85.1429 61.5411 85.1479 60.2393 85.6327 59.3759C86.3081 58.8981 86.1707 58.3709 85.4927 57.8151C85.3339 57.4125 85.1798 57.0011 85.021 56.5985C84.8422 56.5936 84.7094 56.5451 84.5859 56.4791C84.4625 56.413 84.3715 56.3075 84.2852 56.1933C84.3715 56.3075 84.4672 56.4042 84.5859 56.4791C84.7094 56.5451 84.851 56.5983 85.021 56.5985C85.1062 56.2698 85.1874 55.9276 85.2726 55.5989C86.5451 53.9208 87.3619 51.738 89.6193 51.1655C90.3294 51.0466 91.2108 51.6885 91.7731 50.9346L91.8428 51.1647C93.1221 51.9743 93.6856 51.6634 93.4467 50.1178L93.2722 49.9563C93.5297 48.9032 93.4919 47.8508 93.3018 46.8075C93.4919 47.8508 93.5344 48.8943 93.2722 49.9563C94.853 49.101 94.7404 47.6797 94.0337 45.9063C92.3231 41.6219 95.0904 37.999 99.1805 39.0882C101.641 39.7472 102.691 39.1411 102.986 36.8945C103.7 35.3709 103.258 33.7167 102.727 32.06C102.477 31.722 102.236 31.3887 101.986 31.0506C101.655 30.5448 101.289 30.0425 100.977 29.5238C101.302 30.0384 101.66 30.536 101.986 31.0506C102.236 31.3887 102.477 31.722 102.727 32.06C103.691 30.7044 105.124 29.9972 106.441 29.1256C107.736 28.2758 109.06 28.7466 110.5 29.5965C112.203 30.6102 113.799 30.8068 114.617 28.7492C114.947 28.132 115.26 27.5055 115.586 26.8748C117.424 26.407 119.219 26.5508 121.081 27.8196C122.582 28.8501 124.161 29.0148 125.671 28.4395C128.7 29.9017 131.618 31.6338 134.54 33.3794C136.063 34.2852 136.846 35.4075 137.212 37.0328C137.115 37.1285 137.014 37.2331 136.921 37.3424C136.314 37.6297 135.537 37.7244 135.599 38.7327C134.476 39.5157 133.34 40.3028 132.218 41.0858C126.377 41.487 125.31 43.6719 128.209 49.318C128.332 49.5541 128.423 49.8072 128.528 50.0561C129.244 51.6419 129.732 53.105 128.255 54.254C126.892 55.3166 125.596 55.0882 124.066 53.9629C122.58 52.8613 121.01 51.896 119.251 52.2362L119.242 52.2539C118.403 51.385 117.613 51.6314 116.825 51.9584C115.695 53.032 114.38 53.9618 114.486 55.969C113.283 56.9019 114.289 58.3705 114.382 59.5318C114.564 61.6709 113.734 62.565 112.009 62.9688C111.036 63.1968 110.133 62.8495 109.181 62.6575C106.169 62.0547 103.884 64.0983 104.237 67.0206C104.22 67.1588 104.234 67.3023 104.292 67.4471C104.18 67.784 104.054 68.125 103.942 68.4619C103.561 68.9613 103.172 69.456 102.786 69.9643C101.33 71.6462 99.3228 72.5567 97.5479 73.7957C97.8361 74.2109 98.129 74.6172 98.426 75.0371C98.1379 74.6219 97.845 74.2156 97.5479 73.7957C97.2678 73.8953 96.9877 73.9949 96.7075 74.0945C94.8701 73.5646 93.8131 74.2466 93.5232 76.1444C93.4483 76.2631 93.3599 76.3859 93.2762 76.4999C91.5545 78.4026 89.493 79.8171 87.1615 80.8036C86.3239 81.1605 85.3133 81.1414 84.9699 82.2279C83.7401 82.8513 82.2609 83.1144 81.6198 84.6087C77.7478 87.0958 73.3539 88.8838 70.8057 93.157C70.6134 93.4738 70.2414 93.6603 69.9052 93.8433C67.4649 95.2026 65.6599 97.3669 63.5736 99.1879C63.1654 99.5479 63.1442 99.9902 63.4151 100.544C62.5136 101.105 61.6516 101.698 60.5406 101.909C59.5692 102.092 58.3512 102.291 57.8213 103.005C56.1007 105.351 53.9427 107.179 52.0624 109.314C47.7709 114.174 45.0933 120.363 41.9433 126.163C41.8631 126.313 42.0549 126.654 42.124 126.906C41.1574 127.716 41.2671 129.079 41.0283 130.267C38.7932 133.256 39.153 137.203 39.0256 140.98C38.85 141.18 38.6608 141.385 38.4852 141.586C37.7204 142.062 37.2594 142.711 37.586 143.839L37.6864 143.926C36.6034 144.742 35.9505 145.856 35.9388 147.403C35.8469 147.49 35.7767 147.6 35.733 147.724C35.2971 148.115 34.8565 148.514 34.4206 148.904C34.5391 149.149 34.6617 149.408 34.7801 149.653C34.8705 149.78 34.9609 149.908 35.0466 150.045C35.209 149.996 35.3667 149.955 35.5379 149.911C35.3755 149.96 35.2131 150.009 35.0466 150.045C34.8739 150.622 34.7013 151.198 34.5286 151.775C33.9148 151.968 33.2736 152.022 32.6083 151.972C31.9478 151.914 31.2722 151.756 30.622 151.487C31.2858 151.752 31.9567 151.918 32.6083 151.972L32.6225 151.946ZM24.7765 144.99C24.7433 144.416 24.8552 143.932 25.0465 143.49C24.8552 143.932 24.7345 144.411 24.7765 144.99ZM32.749 158.172C32.7204 158.395 32.6647 158.626 32.5379 158.842C32.7865 159.395 32.8087 159.883 32.6511 160.241C32.8223 159.879 32.7953 159.4 32.5379 158.842C32.6559 158.622 32.7157 158.404 32.749 158.172ZM21.1551 140.885C20.7531 141.021 20.3862 141.347 20.0198 141.65C20.3862 141.347 20.762 141.026 21.1551 140.885Z" fill="#EDB153"/>
</svg>
