<svg width="778" height="896" viewBox="0 0 778 896" fill="none" xmlns="http://www.w3.org/2000/svg">
<path d="M8.67965 0.869862L9.80965 3.60986V47.8799H2.63965V0.859863H8.67965V0.869862ZM11.1296 6.79986L19.4596 24.9899V41.7899L11.1296 22.8599V6.79986ZM20.7796 45.1099V0.859863H27.7196V47.8799H21.8896L20.7796 45.1099Z" fill="#231F20"/>
<path d="M95.0897 18.5101L92.8197 32.4901H97.6197L98.3297 37.3701H92.2097L90.1797 47.8901H81.9297L91.8997 0.900139L95.0897 18.5101ZM93.2697 0.890137H99.6497L109.62 47.8801H101.58L96.3597 17.9501L93.2697 0.890137Z" fill="#231F20"/>
<path d="M163.62 47.8801V0.890137H171.95V47.8801H163.62ZM173.27 20.7001H175.88C176.78 20.7001 177.5 20.4501 178.04 19.9501C178.58 19.4501 179.01 18.8401 179.31 18.1201C179.61 17.4001 179.81 16.6401 179.9 15.8501C180 15.0601 180.04 14.3701 180.04 13.7901C180.04 13.2101 180 12.5101 179.91 11.7301C179.82 10.9601 179.64 10.2201 179.37 9.53014C179.1 8.84014 178.71 8.25014 178.21 7.78014C177.71 7.31014 177.05 7.07014 176.25 7.07014H173.27V0.900139H174.43C176.64 0.900139 178.62 1.14014 180.35 1.63014C182.08 2.11014 183.54 2.86014 184.73 3.86014C185.92 4.86014 186.82 6.14014 187.43 7.68014C188.05 9.23014 188.35 11.0701 188.35 13.2201C188.35 14.2901 188.31 15.3801 188.22 16.4901C188.13 17.6001 187.9 18.6701 187.52 19.6901C187.14 20.7201 186.56 21.6801 185.77 22.5601C184.98 23.4501 183.87 24.2101 182.45 24.8401L189.12 47.8901H180.6L175.14 25.9801H173.27V20.7101V20.7001Z" fill="#231F20"/>
<path d="M244.21 47.8801V0.890137H252.54V47.8801H244.21ZM253.86 20.7001H256.47C257.37 20.7001 258.09 20.4501 258.63 19.9501C259.17 19.4501 259.6 18.8401 259.9 18.1201C260.2 17.4001 260.4 16.6401 260.49 15.8501C260.59 15.0601 260.63 14.3701 260.63 13.7901C260.63 13.2101 260.59 12.5101 260.5 11.7301C260.41 10.9601 260.23 10.2201 259.96 9.53014C259.69 8.84014 259.3 8.25014 258.8 7.78014C258.3 7.31014 257.64 7.07014 256.84 7.07014H253.86V0.900139H255.02C257.23 0.900139 259.21 1.14014 260.94 1.63014C262.67 2.11014 264.13 2.86014 265.32 3.86014C266.51 4.86014 267.41 6.14014 268.02 7.68014C268.64 9.23014 268.94 11.0701 268.94 13.2201C268.94 14.2901 268.9 15.3801 268.81 16.4901C268.72 17.6001 268.49 18.6701 268.11 19.6901C267.73 20.7201 267.15 21.6801 266.36 22.5601C265.57 23.4501 264.46 24.2101 263.04 24.8401L269.71 47.8901H261.19L255.73 25.9801H253.86V20.7101V20.7001Z" fill="#231F20"/>
<path d="M336.87 18.5101L334.6 32.4901H339.4L340.11 37.3701H333.99L331.96 47.8901H323.71L333.68 0.900139L336.87 18.5101ZM335.05 0.890137H341.43L351.4 47.8801H343.36L338.14 17.9501L335.05 0.890137Z" fill="#231F20"/>
<path d="M406.63 0.890137H429.68V7.17014H406.63V0.890137ZM422.37 8.49014V47.8801H414.01V8.49014H422.37Z" fill="#231F20"/>
<path d="M494.56 0.890137H502.92V47.8801H494.56V0.890137Z" fill="#231F20"/>
<path d="M575.16 47.7898L566.17 0.799805H574.19L578.59 28.0898L575.16 47.7898ZM584.57 0.799805H592.51L583.12 47.7898H576.5L584.57 0.799805Z" fill="#231F20"/>
<path d="M659.24 18.5101L656.97 32.4901H661.77L662.48 37.3701H656.36L654.33 47.8901H646.08L656.05 0.900139L659.24 18.5101ZM657.43 0.890137H663.81L673.78 47.8801H665.74L660.52 17.9501L657.43 0.890137Z" fill="#231F20"/>
<path d="M740.22 48.78C738.22 48.67 736.48 48.22 735.03 47.41C733.57 46.6 732.35 45.56 731.37 44.27C730.39 42.99 729.63 41.54 729.12 39.92C728.6 38.3 728.28 36.62 728.16 34.88L736.52 33.19C736.56 34.17 736.63 35.16 736.74 36.16C736.85 37.15 737.05 38.07 737.32 38.9C737.59 39.74 737.96 40.45 738.43 41.05C738.9 41.65 739.5 42.04 740.24 42.24V48.78H740.22ZM737.08 26.16L735.18 24.37C734.3 23.6 733.44 22.8 732.61 21.97C731.77 21.14 731.03 20.24 730.37 19.25C729.71 18.27 729.18 17.17 728.79 15.97C728.39 14.77 728.2 13.41 728.2 11.9C728.2 10.14 728.48 8.56 729.04 7.14C729.6 5.73 730.4 4.51 731.43 3.49C732.46 2.47 733.69 1.67 735.12 1.08C736.55 0.490002 738.14 0.140001 739.88 0.0400009V6.45C739.3 6.5 738.79 6.67 738.35 6.94C737.91 7.21 737.55 7.55 737.26 7.96C736.97 8.36 736.75 8.83 736.61 9.36C736.47 9.89 736.4 10.44 736.4 11.02C736.4 11.81 736.5 12.55 736.7 13.23C736.9 13.92 737.18 14.56 737.54 15.15C737.9 15.75 738.32 16.31 738.81 16.85C739.29 17.39 739.82 17.9 740.38 18.39C740.63 18.62 740.96 18.93 741.38 19.33C741.8 19.73 742.24 20.13 742.7 20.56L737.08 26.18V26.16ZM743.62 21.46L744.6 22.33C745.74 23.38 746.82 24.46 747.83 25.56C748.84 26.66 749.72 27.82 750.47 29.05C751.22 30.28 751.81 31.61 752.25 33.03C752.69 34.45 752.91 36.02 752.91 37.72C752.91 39.42 752.61 40.87 752.01 42.2C751.41 43.54 750.6 44.68 749.57 45.64C748.54 46.6 747.34 47.35 745.96 47.89C744.58 48.43 743.11 48.73 741.54 48.79V42.36C742.14 42.32 742.64 42.19 743.06 41.96C743.47 41.73 743.81 41.42 744.08 41.04C744.34 40.65 744.53 40.21 744.65 39.71C744.76 39.21 744.82 38.66 744.82 38.06C744.82 37.08 744.66 36.12 744.33 35.2C744 34.28 743.57 33.39 743.04 32.55C742.5 31.71 741.89 30.9 741.21 30.14C740.52 29.38 739.82 28.66 739.1 27.99L738.05 27.01L743.64 21.45L743.62 21.46ZM741.2 0C742.82 0.04 744.32 0.359999 745.7 0.959999C747.08 1.57 748.28 2.39 749.3 3.43C750.32 4.47 751.13 5.69 751.74 7.11C752.35 8.53 752.68 10.05 752.76 11.68V12.66L744.3 13.98C744.3 13.73 744.3 13.48 744.33 13.22C744.35 12.96 744.36 12.68 744.36 12.4C744.32 11.8 744.25 11.19 744.12 10.55C744 9.92 743.82 9.33 743.58 8.78C743.34 8.24 743.03 7.76 742.64 7.36C742.25 6.96 741.78 6.67 741.22 6.52V0.00999832L741.2 0Z" fill="#231F20"/>
<path d="M7.84961 365.78V212.11H35.0996V365.78H7.84961ZM39.4096 346.38H40.1896C44.3896 346.38 47.8596 346.11 50.6196 345.56C53.3796 345.01 55.5596 344.05 57.1696 342.67C58.7796 341.29 59.9096 339.42 60.5796 337.06C61.2396 334.7 61.5696 331.71 61.5696 328.09V248.32C61.5696 245.27 61.1696 242.69 60.3596 240.56C59.5496 238.43 58.2896 236.71 56.5696 235.39C54.8496 234.07 52.6596 233.1 50.0196 232.5C47.3696 231.9 44.2396 231.59 40.6196 231.59H39.4096V212.1H40.4396C50.0996 212.1 58.0596 213.11 64.3296 215.12C70.5996 217.13 75.5496 220.16 79.2096 224.22C82.8596 228.27 85.3896 233.36 86.7996 239.48C88.2096 245.6 88.9096 252.78 88.9096 261V314.03C88.9096 319.61 88.6596 324.75 88.1796 329.47C87.6896 334.18 86.7896 338.47 85.4596 342.32C84.1396 346.17 82.3296 349.55 80.0296 352.45C77.7296 355.35 74.7796 357.8 71.1896 359.78C67.5996 361.76 63.2596 363.26 58.1696 364.26C53.0796 365.27 47.0896 365.77 40.1896 365.77H39.4096V346.37V346.38Z" fill="#231F20"/>
<path d="M233.41 365.78V212.11H260.66V365.78H233.41ZM264.97 212.11H295.24V231.17H264.97V212.11ZM264.97 276.53H285.24V295.93H264.97V276.53ZM264.97 346.72H295.24V365.78H264.97V346.72Z" fill="#231F20"/>
<path d="M474.23 230.56C471.3 230.9 468.93 231.87 467.12 233.45C465.31 235.03 463.89 237 462.85 239.36C461.82 241.72 461.13 244.29 460.78 247.08C460.44 249.87 460.26 252.64 460.26 255.4V322.58C460.26 325.34 460.43 328.11 460.78 330.9C461.12 333.69 461.81 336.26 462.85 338.62C463.88 340.98 465.31 342.95 467.12 344.53C468.93 346.11 471.3 347.07 474.23 347.42V368.63C466.3 368.4 459.7 366.83 454.44 363.93C449.18 361.03 444.95 357.2 441.76 352.46C438.57 347.72 436.31 342.21 434.99 335.95C433.67 329.68 433.01 323.01 433.01 315.94V262.13C433.01 254.94 433.67 248.19 434.99 241.86C436.31 235.54 438.57 230 441.76 225.26C444.95 220.52 449.19 216.74 454.48 213.92C459.77 211.1 466.35 209.55 474.23 209.26V230.56ZM478.55 209.26C485.85 209.55 492.02 211 497.05 213.61C502.08 216.23 506.15 219.76 509.25 224.22C512.35 228.68 514.58 233.92 515.93 239.96C517.28 246 517.96 252.52 517.96 259.54V271.27H491.23V258.16C491.23 255.11 491.09 252.04 490.8 248.93C490.51 245.83 489.92 242.98 489.03 240.39C488.14 237.8 486.86 235.63 485.19 233.88C483.52 232.13 481.31 231.05 478.55 230.65V209.26ZM478.55 347.33C481.31 346.93 483.52 345.86 485.19 344.14C486.86 342.42 488.14 340.26 489.03 337.67C489.92 335.08 490.52 332.22 490.84 329.09C491.16 325.96 491.31 322.81 491.31 319.65V304.99H517.96V316.8C517.84 323.47 517.17 329.86 515.93 335.99C514.69 342.11 512.58 347.55 509.59 352.29C506.6 357.03 502.59 360.87 497.56 363.8C492.53 366.73 486.19 368.34 478.55 368.63V347.33Z" fill="#231F20"/>
<path d="M7.84961 577.71V424.04H35.0996V577.71H7.84961ZM39.4096 558.65H68.3796V577.71H39.4096V558.65Z" fill="#231F20"/>
<path d="M489.9 423.95L493.61 432.92V577.71H470.15V423.95H489.9ZM497.92 443.36L525.17 502.86V557.79L497.92 495.87V443.35V443.36ZM529.48 568.66V423.96H552.16V577.72H533.1L529.48 568.67V568.66Z" fill="#231F20"/>
<path d="M716.96 424.04H744.3V577.71H716.96V424.04Z" fill="#231F20"/>
<path d="M43.03 693.58L35.61 739.28H51.3L53.63 755.23H33.62L26.98 789.64H0L32.6 635.97L43.03 693.58ZM37.08 635.97H57.95L90.55 789.64H64.25L47.18 691.76L37.09 635.97H37.08Z" fill="#231F20"/>
<path d="M364.34 635.97H391.68V789.64H364.34V635.97Z" fill="#231F20"/>
<path d="M708.25 792.57C701.7 792.23 696.03 790.73 691.26 788.09C686.49 785.45 682.49 782.03 679.27 777.83C676.05 773.63 673.59 768.89 671.9 763.6C670.2 758.31 669.15 752.82 668.75 747.13L696.09 741.61C696.2 744.83 696.45 748.06 696.82 751.31C697.19 754.56 697.83 757.55 698.72 760.28C699.61 763.01 700.82 765.35 702.34 767.31C703.86 769.27 705.83 770.56 708.25 771.19V792.58V792.57ZM697.99 718.59L691.78 712.73C688.9 710.2 686.1 707.59 683.37 704.88C680.64 702.18 678.2 699.22 676.04 696C673.88 692.78 672.16 689.2 670.87 685.26C669.58 681.32 668.93 676.88 668.93 671.94C668.93 666.19 669.85 661 671.69 656.37C673.53 651.74 676.13 647.76 679.49 644.43C682.85 641.1 686.88 638.47 691.56 636.54C696.24 634.61 701.43 633.48 707.13 633.13V654.09C705.23 654.26 703.56 654.79 702.13 655.69C700.69 656.58 699.5 657.69 698.55 659.01C697.6 660.33 696.9 661.86 696.44 663.58C695.98 665.3 695.75 667.12 695.75 669.01C695.75 671.6 696.08 674.01 696.74 676.25C697.4 678.49 698.32 680.59 699.5 682.55C700.68 684.51 702.06 686.36 703.64 688.11C705.22 689.86 706.93 691.55 708.77 693.15C709.57 693.9 710.67 694.92 712.05 696.21C713.43 697.5 714.87 698.84 716.36 700.22L697.99 718.59ZM719.37 703.24L722.56 706.09C726.3 709.54 729.82 713.06 733.12 716.65C736.43 720.24 739.3 724.05 741.74 728.08C744.18 732.1 746.12 736.44 747.56 741.1C749 745.76 749.72 750.87 749.72 756.45C749.72 762.03 748.74 766.74 746.79 771.11C744.83 775.48 742.18 779.23 738.81 782.36C735.45 785.49 731.51 787.95 727 789.73C722.49 791.51 717.67 792.49 712.56 792.66V771.62C714.51 771.51 716.17 771.07 717.52 770.33C718.87 769.58 719.98 768.58 720.84 767.31C721.7 766.05 722.32 764.59 722.69 762.96C723.06 761.32 723.25 759.53 723.25 757.57C723.25 754.35 722.72 751.23 721.65 748.21C720.59 745.19 719.18 742.3 717.42 739.54C715.67 736.78 713.67 734.15 711.43 731.65C709.19 729.15 706.89 726.81 704.53 724.62L701.08 721.43L719.36 703.23L719.37 703.24ZM711.44 633.04C716.73 633.16 721.63 634.2 726.14 636.19C730.65 638.17 734.58 640.86 737.91 644.25C741.24 647.64 743.9 651.65 745.89 656.28C747.87 660.91 748.98 665.9 749.21 671.24V674.43L721.53 678.74C721.53 677.94 721.56 677.1 721.62 676.24C721.68 675.38 721.71 674.49 721.71 673.57C721.59 671.62 721.34 669.6 720.93 667.53C720.53 665.46 719.94 663.53 719.16 661.75C718.38 659.97 717.36 658.42 716.1 657.09C714.83 655.77 713.28 654.85 711.44 654.33V633.03V633.04Z" fill="#231F20"/>
<path d="M0.900391 881.78V834.79H9.23039V881.78H0.900391ZM10.5504 834.79H19.8104V840.62H10.5504V834.79ZM10.5504 854.49H16.7504V860.42H10.5504V854.49ZM10.5504 875.95H19.8104V881.78H10.5504V875.95Z" fill="#231F20"/>
<path d="M68.4295 852.4L66.1595 866.38H70.9595L71.6695 871.26H65.5495L63.5195 881.78H55.2695L65.2395 834.79L68.4295 852.4ZM66.6095 834.79H72.9895L82.9595 881.78H74.9195L69.6995 851.85L66.6095 834.79Z" fill="#231F20"/>
<path d="M92.7197 834.76L93.8497 837.5V881.77H86.6797V834.75H92.7197V834.76ZM95.1697 840.69L103.5 858.88V875.68L95.1697 856.75V840.69ZM104.82 879.01V834.76H111.76V881.78H105.93L104.82 879.01Z" fill="#231F20"/>
<path d="M114.94 834.79H137.99V841.07H114.94V834.79ZM130.69 842.38V881.77H122.33V842.38H130.69Z" fill="#231F20"/>
<path d="M141.15 834.79H149.51V881.78H141.15V834.79Z" fill="#231F20"/>
<path d="M155.63 881.78V834.79H163.96V881.78H155.63ZM165.28 854.59H167.89C168.79 854.59 169.51 854.34 170.05 853.84C170.59 853.34 171.02 852.73 171.32 852.01C171.62 851.29 171.82 850.53 171.91 849.74C172.01 848.95 172.05 848.26 172.05 847.68C172.05 847.1 172.01 846.4 171.92 845.62C171.83 844.85 171.65 844.11 171.38 843.42C171.11 842.73 170.72 842.14 170.22 841.67C169.72 841.2 169.06 840.96 168.26 840.96H165.28V834.79H166.44C168.65 834.79 170.63 835.03 172.36 835.52C174.09 836 175.55 836.75 176.74 837.75C177.93 838.75 178.83 840.03 179.44 841.57C180.06 843.12 180.36 844.96 180.36 847.11C180.36 848.18 180.32 849.27 180.23 850.38C180.14 851.49 179.91 852.56 179.53 853.58C179.15 854.61 178.57 855.57 177.78 856.45C176.99 857.34 175.88 858.1 174.46 858.73L181.13 881.78H172.61L167.15 859.87H165.28V854.6V854.59Z" fill="#231F20"/>
<path d="M185.14 881.78V834.79H193.47V881.78H185.14ZM194.79 854.59H197.4C198.3 854.59 199.02 854.34 199.56 853.84C200.1 853.34 200.53 852.73 200.83 852.01C201.13 851.29 201.33 850.53 201.42 849.74C201.52 848.95 201.56 848.26 201.56 847.68C201.56 847.1 201.52 846.4 201.43 845.62C201.34 844.85 201.16 844.11 200.89 843.42C200.62 842.73 200.23 842.14 199.73 841.67C199.23 841.2 198.57 840.96 197.77 840.96H194.79V834.79H195.95C198.16 834.79 200.14 835.03 201.87 835.52C203.6 836 205.06 836.75 206.25 837.75C207.44 838.75 208.34 840.03 208.95 841.57C209.57 843.12 209.87 844.96 209.87 847.11C209.87 848.18 209.83 849.27 209.74 850.38C209.65 851.49 209.42 852.56 209.04 853.58C208.66 854.61 208.08 855.57 207.29 856.45C206.5 857.34 205.39 858.1 203.97 858.73L210.64 881.78H202.12L196.66 859.87H194.79V854.6V854.59Z" fill="#231F20"/>
<path d="M225.4 852.4L223.13 866.38H227.93L228.64 871.26H222.52L220.49 881.78H212.24L222.21 834.79L225.4 852.4ZM223.58 834.79H229.96L239.93 881.78H231.89L226.67 851.85L223.58 834.79Z" fill="#231F20"/>
<path d="M254.86 840.43C253.96 840.54 253.24 840.83 252.68 841.31C252.13 841.79 251.69 842.4 251.37 843.12C251.05 843.84 250.84 844.63 250.74 845.48C250.63 846.33 250.58 847.18 250.58 848.02V868.56C250.58 869.4 250.63 870.25 250.74 871.1C250.85 871.95 251.06 872.74 251.37 873.46C251.69 874.18 252.12 874.78 252.68 875.27C253.23 875.75 253.96 876.05 254.86 876.15V882.64C252.43 882.57 250.42 882.09 248.81 881.2C247.2 880.31 245.91 879.14 244.93 877.69C243.95 876.24 243.26 874.56 242.86 872.64C242.46 870.72 242.25 868.68 242.25 866.52V850.07C242.25 847.87 242.45 845.81 242.86 843.87C243.26 841.94 243.95 840.24 244.93 838.79C245.91 837.34 247.2 836.18 248.82 835.32C250.44 834.46 252.45 833.98 254.86 833.9V840.41V840.43ZM256.17 833.92C258.4 834.01 260.29 834.45 261.83 835.25C263.37 836.05 264.61 837.13 265.56 838.49C266.51 839.85 267.19 841.46 267.6 843.3C268.01 845.15 268.22 847.14 268.22 849.29V852.88H260.05V848.87C260.05 847.94 260.01 847 259.92 846.05C259.83 845.1 259.65 844.23 259.38 843.44C259.11 842.65 258.72 841.99 258.21 841.45C257.7 840.91 257.02 840.58 256.18 840.46V833.92H256.17ZM256.17 876.13C257.01 876.01 257.69 875.68 258.2 875.15C258.71 874.62 259.1 873.96 259.37 873.17C259.64 872.38 259.83 871.5 259.92 870.55C260.02 869.59 260.06 868.63 260.06 867.66V863.18H268.21V866.79C268.17 868.83 267.97 870.78 267.59 872.66C267.21 874.53 266.57 876.19 265.65 877.64C264.74 879.09 263.51 880.26 261.97 881.16C260.43 882.06 258.49 882.55 256.16 882.64V876.13H256.17Z" fill="#231F20"/>
<path d="M273.24 834.79H281.6V881.78H273.24V834.79Z" fill="#231F20"/>
<path d="M298.36 882.67C296.36 882.56 294.62 882.11 293.17 881.3C291.71 880.49 290.49 879.45 289.51 878.16C288.53 876.88 287.77 875.43 287.26 873.81C286.74 872.19 286.42 870.51 286.3 868.77L294.66 867.08C294.7 868.06 294.77 869.05 294.88 870.05C294.99 871.04 295.19 871.96 295.46 872.79C295.73 873.63 296.1 874.34 296.57 874.94C297.04 875.54 297.64 875.93 298.38 876.13V882.67H298.36ZM295.23 860.05L293.33 858.26C292.45 857.49 291.59 856.69 290.76 855.86C289.92 855.03 289.18 854.13 288.52 853.14C287.86 852.16 287.33 851.06 286.94 849.86C286.54 848.66 286.35 847.3 286.35 845.79C286.35 844.03 286.63 842.45 287.19 841.03C287.75 839.62 288.55 838.4 289.58 837.38C290.61 836.36 291.84 835.56 293.27 834.97C294.7 834.38 296.29 834.03 298.03 833.93V840.34C297.45 840.39 296.94 840.56 296.5 840.83C296.06 841.1 295.7 841.44 295.41 841.85C295.12 842.25 294.9 842.72 294.76 843.25C294.62 843.78 294.55 844.33 294.55 844.91C294.55 845.7 294.65 846.44 294.85 847.12C295.05 847.81 295.33 848.45 295.69 849.04C296.05 849.64 296.47 850.2 296.96 850.74C297.44 851.28 297.97 851.79 298.53 852.28C298.78 852.51 299.11 852.82 299.53 853.22C299.95 853.62 300.39 854.02 300.85 854.45L295.23 860.07V860.05ZM301.77 855.36L302.75 856.23C303.89 857.28 304.97 858.36 305.98 859.46C306.99 860.56 307.87 861.72 308.62 862.95C309.37 864.18 309.96 865.51 310.4 866.93C310.84 868.35 311.06 869.92 311.06 871.62C311.06 873.32 310.76 874.77 310.16 876.1C309.56 877.44 308.75 878.58 307.72 879.54C306.69 880.5 305.49 881.25 304.11 881.79C302.73 882.33 301.26 882.63 299.69 882.69V876.26C300.29 876.22 300.79 876.09 301.21 875.86C301.62 875.63 301.96 875.32 302.23 874.94C302.49 874.55 302.68 874.11 302.8 873.61C302.91 873.11 302.97 872.56 302.97 871.96C302.97 870.98 302.81 870.02 302.48 869.1C302.15 868.18 301.72 867.29 301.19 866.45C300.65 865.61 300.04 864.8 299.36 864.04C298.67 863.28 297.97 862.56 297.25 861.89L296.2 860.91L301.79 855.35L301.77 855.36ZM299.34 833.89C300.96 833.93 302.46 834.25 303.84 834.85C305.22 835.46 306.42 836.28 307.44 837.32C308.46 838.36 309.27 839.58 309.88 841C310.49 842.42 310.82 843.94 310.9 845.57V846.55L302.44 847.87C302.44 847.62 302.44 847.37 302.47 847.11C302.49 846.85 302.5 846.57 302.5 846.29C302.46 845.69 302.39 845.08 302.26 844.44C302.14 843.81 301.96 843.22 301.72 842.67C301.48 842.13 301.17 841.65 300.78 841.25C300.39 840.85 299.92 840.56 299.36 840.41V833.9L299.34 833.89Z" fill="#231F20"/>
<path d="M311.79 834.79H334.84V841.07H311.79V834.79ZM327.53 842.38V881.77H319.17V842.38H327.53Z" fill="#231F20"/>
<path d="M346.83 852.4L344.56 866.38H349.36L350.07 871.26H343.95L341.92 881.78H333.67L343.64 834.79L346.83 852.4ZM345.01 834.79H351.39L361.36 881.78H353.32L348.1 851.85L345.01 834.79Z" fill="#231F20"/>
<path d="M375.47 882.67C373.47 882.56 371.73 882.11 370.28 881.3C368.82 880.49 367.6 879.45 366.62 878.16C365.64 876.88 364.88 875.43 364.37 873.81C363.85 872.19 363.53 870.51 363.41 868.77L371.77 867.08C371.81 868.06 371.88 869.05 371.99 870.05C372.1 871.04 372.3 871.96 372.57 872.79C372.84 873.63 373.21 874.34 373.68 874.94C374.15 875.54 374.75 875.93 375.49 876.13V882.67H375.47ZM372.33 860.05L370.43 858.26C369.55 857.49 368.69 856.69 367.86 855.86C367.02 855.03 366.28 854.13 365.62 853.14C364.96 852.16 364.43 851.06 364.04 849.86C363.64 848.66 363.45 847.3 363.45 845.79C363.45 844.03 363.73 842.45 364.29 841.03C364.85 839.62 365.65 838.4 366.68 837.38C367.71 836.36 368.94 835.56 370.37 834.97C371.8 834.38 373.39 834.03 375.13 833.93V840.34C374.55 840.39 374.04 840.56 373.6 840.83C373.16 841.1 372.8 841.44 372.51 841.85C372.22 842.25 372 842.72 371.86 843.25C371.72 843.78 371.65 844.33 371.65 844.91C371.65 845.7 371.75 846.44 371.95 847.12C372.15 847.81 372.43 848.45 372.79 849.04C373.15 849.64 373.57 850.2 374.06 850.74C374.54 851.28 375.07 851.79 375.63 852.28C375.88 852.51 376.21 852.82 376.63 853.22C377.05 853.62 377.49 854.02 377.95 854.45L372.33 860.07V860.05ZM378.87 855.36L379.85 856.23C380.99 857.28 382.07 858.36 383.08 859.46C384.09 860.56 384.97 861.72 385.72 862.95C386.47 864.18 387.06 865.51 387.5 866.93C387.94 868.35 388.16 869.92 388.16 871.62C388.16 873.32 387.86 874.77 387.26 876.1C386.66 877.44 385.85 878.58 384.82 879.54C383.79 880.5 382.59 881.25 381.21 881.79C379.83 882.33 378.36 882.63 376.79 882.69V876.26C377.39 876.22 377.89 876.09 378.31 875.86C378.72 875.63 379.06 875.32 379.33 874.94C379.59 874.55 379.78 874.11 379.9 873.61C380.01 873.11 380.07 872.56 380.07 871.96C380.07 870.98 379.91 870.02 379.58 869.1C379.25 868.18 378.82 867.29 378.29 866.45C377.75 865.61 377.14 864.8 376.46 864.04C375.77 863.28 375.07 862.56 374.35 861.89L373.3 860.91L378.89 855.35L378.87 855.36ZM376.44 833.89C378.06 833.93 379.56 834.25 380.94 834.85C382.32 835.46 383.52 836.28 384.54 837.32C385.56 838.36 386.37 839.58 386.98 841C387.59 842.42 387.92 843.94 388 845.57V846.55L379.54 847.87C379.54 847.62 379.54 847.37 379.57 847.11C379.59 846.85 379.6 846.57 379.6 846.29C379.56 845.69 379.49 845.08 379.36 844.44C379.24 843.81 379.06 843.22 378.82 842.67C378.58 842.13 378.27 841.65 377.88 841.25C377.49 840.85 377.02 840.56 376.46 840.41V833.9L376.44 833.89Z" fill="#231F20"/>
<path d="M426.41 881.78V834.79H434.74V881.78H426.41ZM436.06 834.79H445.32V840.62H436.06V834.79ZM436.06 854.49H442.26V860.42H436.06V854.49ZM436.06 875.95H445.32V881.78H436.06V875.95Z" fill="#231F20"/>
<path d="M449.37 881.78V834.79H455.83V881.78H449.37ZM469.26 881.78H463.59L457.16 858.81V834.81H457.63L469.26 881.77V881.78ZM466.99 866.96L474.95 834.82H475.5V858.82L469.7 878.07L466.98 866.97L466.99 866.96ZM476.82 881.78V834.79H483.28V881.78H476.82Z" fill="#231F20"/>
<path d="M523.2 881.78V834.79H531.53V881.78H523.2ZM532.86 834.79H542.12V840.62H532.86V834.79ZM532.86 854.49H539.06V860.42H532.86V854.49ZM532.86 875.95H542.12V881.78H532.86V875.95Z" fill="#231F20"/>
<path d="M546.17 881.78V834.79H554.5V881.78H546.17ZM555.82 875.84H556.06C557.34 875.84 558.41 875.76 559.25 875.59C560.09 875.42 560.76 875.13 561.25 874.71C561.74 874.29 562.09 873.72 562.29 873C562.49 872.28 562.59 871.37 562.59 870.26V845.87C562.59 844.94 562.47 844.15 562.22 843.5C561.97 842.85 561.59 842.32 561.06 841.92C560.53 841.52 559.86 841.22 559.06 841.04C558.25 840.86 557.29 840.76 556.19 840.76H555.82V834.8H556.14C559.09 834.8 561.53 835.11 563.44 835.72C565.36 836.34 566.87 837.26 567.99 838.5C569.11 839.74 569.88 841.3 570.31 843.17C570.74 845.04 570.96 847.24 570.96 849.75V865.97C570.96 867.68 570.89 869.25 570.74 870.69C570.59 872.13 570.31 873.44 569.91 874.62C569.51 875.8 568.95 876.83 568.25 877.72C567.55 878.61 566.65 879.35 565.55 879.96C564.45 880.57 563.12 881.02 561.57 881.33C560.01 881.64 558.18 881.79 556.07 881.79H555.83V875.86L555.82 875.84Z" fill="#231F20"/>
<path d="M588.92 882.65C587.11 882.6 585.54 882.35 584.2 881.9C582.86 881.45 581.73 880.84 580.79 880.07C579.85 879.3 579.08 878.38 578.48 877.33C577.88 876.28 577.41 875.12 577.07 873.88C576.73 872.63 576.49 871.31 576.37 869.91C576.25 868.51 576.19 867.08 576.19 865.6V834.8H584.55V865.57C584.55 867.29 584.6 868.8 584.69 870.08C584.79 871.36 584.99 872.44 585.3 873.31C585.61 874.18 586.05 874.85 586.62 875.31C587.19 875.78 587.96 876.06 588.93 876.17V882.66L588.92 882.65ZM590.23 876.19C591.25 876.14 592.04 875.88 592.62 875.43C593.19 874.97 593.62 874.31 593.9 873.44C594.18 872.57 594.35 871.48 594.41 870.17C594.47 868.86 594.5 867.33 594.5 865.57V834.8H602.83V865.6C602.83 867.08 602.77 868.52 602.66 869.92C602.55 871.33 602.32 872.66 601.99 873.91C601.66 875.17 601.2 876.32 600.62 877.36C600.04 878.41 599.28 879.32 598.35 880.09C597.42 880.86 596.28 881.47 594.95 881.92C593.61 882.37 592.04 882.61 590.23 882.65V876.19Z" fill="#231F20"/>
<path d="M620.66 840.43C619.76 840.54 619.04 840.83 618.48 841.31C617.93 841.79 617.49 842.4 617.17 843.12C616.85 843.84 616.64 844.63 616.54 845.48C616.43 846.33 616.38 847.18 616.38 848.02V868.56C616.38 869.4 616.43 870.25 616.54 871.1C616.65 871.95 616.86 872.74 617.17 873.46C617.49 874.18 617.92 874.78 618.48 875.27C619.03 875.75 619.76 876.05 620.66 876.15V882.64C618.23 882.57 616.22 882.09 614.61 881.2C613 880.31 611.71 879.14 610.73 877.69C609.75 876.24 609.06 874.56 608.66 872.64C608.26 870.72 608.05 868.68 608.05 866.52V850.07C608.05 847.87 608.25 845.81 608.66 843.87C609.06 841.94 609.75 840.24 610.73 838.79C611.71 837.34 613 836.18 614.62 835.32C616.24 834.46 618.25 833.98 620.66 833.9V840.41V840.43ZM621.98 833.92C624.21 834.01 626.1 834.45 627.64 835.25C629.18 836.05 630.42 837.13 631.37 838.49C632.32 839.85 633 841.46 633.41 843.3C633.82 845.15 634.03 847.14 634.03 849.29V852.88H625.86V848.87C625.86 847.94 625.82 847 625.73 846.05C625.64 845.1 625.46 844.23 625.19 843.44C624.92 842.65 624.53 841.99 624.02 841.45C623.51 840.91 622.83 840.58 621.99 840.46V833.92H621.98ZM621.98 876.13C622.82 876.01 623.5 875.68 624.01 875.15C624.52 874.62 624.91 873.96 625.18 873.17C625.45 872.38 625.64 871.5 625.73 870.55C625.83 869.59 625.87 868.63 625.87 867.66V863.18H634.02V866.79C633.98 868.83 633.78 870.78 633.4 872.66C633.02 874.53 632.38 876.19 631.46 877.64C630.55 879.09 629.32 880.26 627.78 881.16C626.24 882.06 624.3 882.55 621.97 882.64V876.13H621.98Z" fill="#231F20"/>
<path d="M649.75 852.4L647.48 866.38H652.28L652.99 871.26H646.87L644.84 881.78H636.59L646.56 834.79L649.75 852.4ZM647.93 834.79H654.31L664.28 881.78H656.24L651.02 851.85L647.93 834.79Z" fill="#231F20"/>
<path d="M679.2 840.43C678.3 840.54 677.58 840.83 677.02 841.31C676.47 841.79 676.03 842.4 675.71 843.12C675.39 843.84 675.18 844.63 675.08 845.48C674.97 846.33 674.92 847.18 674.92 848.02V868.56C674.92 869.4 674.97 870.25 675.08 871.1C675.19 871.95 675.4 872.74 675.71 873.46C676.03 874.18 676.46 874.78 677.02 875.27C677.57 875.75 678.3 876.05 679.2 876.15V882.64C676.77 882.57 674.76 882.09 673.15 881.2C671.54 880.31 670.25 879.14 669.27 877.69C668.29 876.24 667.6 874.56 667.2 872.64C666.8 870.72 666.59 868.68 666.59 866.52V850.07C666.59 847.87 666.79 845.81 667.2 843.87C667.6 841.94 668.29 840.24 669.27 838.79C670.25 837.34 671.54 836.18 673.16 835.32C674.78 834.46 676.79 833.98 679.2 833.9V840.41V840.43ZM676.43 891.93H677.77C678.37 891.93 678.97 891.89 679.58 891.82C680.19 891.75 680.71 891.63 681.16 891.45C681.61 891.27 681.83 891.02 681.83 890.69C681.83 890.32 681.68 889.97 681.38 889.65C681.08 889.32 680.72 889.03 680.3 888.75C679.88 888.48 679.44 888.24 678.98 888.04C678.52 887.84 678.14 887.67 677.85 887.53V885.08L681.73 885.11C682.33 885.41 682.94 885.75 683.58 886.14C684.21 886.53 684.79 886.96 685.31 887.43C685.83 887.9 686.25 888.43 686.59 889C686.92 889.57 687.09 890.18 687.09 890.83C687.09 891.57 686.91 892.2 686.56 892.73C686.21 893.26 685.74 893.7 685.16 894.05C684.58 894.4 683.92 894.68 683.17 894.89C682.42 895.1 681.65 895.26 680.86 895.36C680.07 895.47 679.29 895.53 678.51 895.56C677.74 895.59 677.04 895.6 676.43 895.6V891.93ZM680.52 833.92C682.75 834.01 684.64 834.45 686.18 835.25C687.72 836.05 688.96 837.13 689.91 838.49C690.86 839.85 691.54 841.46 691.95 843.3C692.36 845.15 692.57 847.14 692.57 849.29V852.88H684.4V848.87C684.4 847.94 684.36 847 684.27 846.05C684.18 845.1 684 844.23 683.73 843.44C683.46 842.65 683.07 841.99 682.56 841.45C682.05 840.91 681.37 840.58 680.53 840.46V833.92H680.52ZM680.52 876.13C681.36 876.01 682.04 875.68 682.55 875.15C683.06 874.62 683.45 873.96 683.72 873.17C683.99 872.38 684.18 871.5 684.27 870.55C684.37 869.59 684.41 868.63 684.41 867.66V863.18H692.56V866.79C692.52 868.83 692.32 870.78 691.94 872.66C691.56 874.53 690.92 876.19 690 877.64C689.09 879.09 687.86 880.26 686.32 881.16C684.78 882.06 682.84 882.55 680.51 882.64V876.13H680.52Z" fill="#231F20"/>
<path d="M708.26 852.4L705.99 866.38H710.79L711.5 871.26H705.38L703.35 881.78H695.1L705.07 834.79L708.26 852.4ZM699.85 831.15C699.85 830.31 699.9 829.45 700.01 828.59C700.12 827.73 700.34 826.96 700.68 826.27C701.02 825.58 701.51 825.02 702.16 824.58C702.8 824.14 703.66 823.92 704.73 823.92C705.47 823.92 706.19 824 706.89 824.17C707.59 824.34 708.26 824.53 708.88 824.74C709.5 824.95 710.08 825.14 710.61 825.31C711.14 825.48 711.59 825.56 711.98 825.56C712.45 825.56 712.75 825.44 712.88 825.19C713 824.94 713.07 824.62 713.09 824.21H716.97C716.97 824.79 716.93 825.49 716.86 826.31C716.79 827.13 716.61 827.92 716.32 828.68C716.03 829.44 715.6 830.1 715.03 830.63C714.46 831.17 713.67 831.43 712.67 831.43C712.05 831.43 711.43 831.33 710.81 831.13C710.19 830.93 709.56 830.7 708.94 830.46C708.32 830.21 707.7 829.99 707.08 829.79C706.46 829.59 705.88 829.49 705.31 829.49C704.99 829.49 704.75 829.53 704.57 829.62C704.39 829.71 704.26 829.83 704.17 829.98C704.08 830.13 704.02 830.31 704 830.51C703.97 830.71 703.95 830.93 703.93 831.16H699.84L699.85 831.15ZM706.44 834.79H712.82L722.79 881.78H714.75L709.53 851.85L706.44 834.79Z" fill="#231F20"/>
<path d="M737.82 840.43C736.92 840.54 736.19 840.83 735.63 841.31C735.07 841.79 734.62 842.4 734.3 843.12C733.97 843.84 733.75 844.63 733.64 845.48C733.53 846.33 733.47 847.18 733.47 848.02V868.59C733.47 869.43 733.53 870.28 733.64 871.13C733.75 871.98 733.97 872.76 734.29 873.48C734.61 874.19 735.05 874.79 735.62 875.27C736.19 875.75 736.93 876.05 737.82 876.15V882.64C735.41 882.57 733.4 882.1 731.78 881.24C730.16 880.38 728.86 879.23 727.88 877.8C726.9 876.37 726.19 874.7 725.77 872.8C725.35 870.9 725.14 868.87 725.14 866.71V850.07C725.14 847.87 725.35 845.81 725.76 843.87C726.17 841.94 726.87 840.24 727.86 838.79C728.84 837.34 730.15 836.18 731.78 835.32C733.41 834.46 735.42 833.98 737.83 833.9V840.41L737.82 840.43ZM739.14 833.92C741.55 834.01 743.57 834.48 745.19 835.34C746.82 836.2 748.13 837.36 749.12 838.81C750.11 840.26 750.82 841.95 751.24 843.87C751.66 845.79 751.87 847.86 751.87 850.08V866.53C751.87 868.69 751.66 870.73 751.24 872.65C750.82 874.57 750.11 876.25 749.13 877.7C748.15 879.15 746.84 880.32 745.21 881.21C743.58 882.1 741.56 882.58 739.13 882.65V876.16C740.04 876.05 740.79 875.76 741.36 875.29C741.93 874.82 742.38 874.22 742.69 873.51C743.01 872.8 743.22 872.01 743.34 871.15C743.45 870.29 743.51 869.44 743.51 868.59V848.02C743.51 847.18 743.45 846.32 743.34 845.46C743.23 844.6 743.01 843.81 742.68 843.1C742.35 842.39 741.91 841.79 741.34 841.31C740.77 840.83 740.03 840.53 739.14 840.43V833.92Z" fill="#231F20"/>
<path d="M771.01 155.28C771.52 155.23 771.92 155.15 772.22 155.06C772.52 154.96 772.75 154.81 772.91 154.6C773.07 154.39 773.17 154.12 773.23 153.8C773.28 153.47 773.31 153.06 773.31 152.55H770.3V144.98H778V148.83C778 150.32 777.96 151.7 777.87 152.96C777.78 154.22 777.57 155.3 777.24 156.2C776.91 157.11 776.41 157.81 775.75 158.32C775.09 158.83 774.18 159.08 773.02 159.08H772.53C772.36 159.08 772.19 159.06 772.02 159.03L771.02 155.29L771.01 155.28Z" fill="#231F20"/>
<path d="M671.74 368.56C680.66 373.64 689.88 374.57 699.07 372.79C699.49 373 699.89 373.06 700.25 372.82C701.3 373.03 702.201 372.69 703.151 372.51C703.951 372.97 704.65 372.56 705.41 372.62C706 373.01 706.46 372.87 706.86 372.51C707 372.57 707.141 372.61 707.281 372.63C708.441 373.18 709.33 372.87 710.12 372.24C710.54 372.42 710.92 372.44 711.25 372.2C714.09 372.56 716.62 372.06 718.87 370.8C719.51 370.23 720.341 370.06 721.271 370.07C722.181 370.49 722.86 370.34 723.35 369.66C725.69 368.75 728.49 368.59 730.29 366.79C731.16 366.82 732.04 366.86 732.41 366.01C733.29 366.22 734.05 366.18 734.44 365.39C735.24 365.04 736.061 364.71 736.591 364.04C737.511 364.37 737.9 363.91 738.19 363.3C738.79 363.07 739.331 362.77 739.591 362.19C740.651 362.31 741.37 361.92 741.8 361.12C742.06 360.8 742.321 360.49 742.581 360.17C742.841 360.07 743.1 359.98 743.35 359.88C743.45 359.84 743.5 359.77 743.51 359.67C744.11 359.78 744.61 359.71 744.81 359.14C746.15 357.96 747.48 356.79 748.82 355.61C752.81 353.4 755.47 350.01 758.19 346.68C758.96 345.71 759.73 344.73 760.5 343.76C761.91 343.24 762.081 341.87 762.701 340.8C763.261 339.88 763.81 338.97 764.37 338.05C765.35 337.89 765.47 337.03 765.86 336.41C769.46 330.7 771.401 324.32 773.021 317.71C775.521 307.57 776.101 297.07 776.271 286.45C776.281 285.72 776.3 284.85 775.6 284.13C776.15 282.92 775.84 281.55 775.79 280.24C775.82 278.71 776.11 277.2 775.37 275.63C775.45 275.54 775.48 275.44 775.48 275.32C775.76 274.81 775.571 274.34 775.091 273.9C775.181 273.65 775.26 273.39 775.35 273.14C775.7 272.66 775.48 272.21 775.05 271.77C775.05 271.07 775.11 270.37 775.05 269.66C774.54 263.45 773.421 257.25 772.281 251.03C770.841 243.15 768.26 235.47 765.16 227.82C762.73 221.82 760.47 215.79 759.11 209.63C758.45 206.61 757.79 203.58 757.13 200.56C755.13 196.16 751.48 192.84 747.42 190.06C745.21 188.55 743.281 186.29 740.341 185.93C738.951 185.05 737.54 184.2 735.94 183.76C735.66 183.37 735.321 183.22 734.891 183.4C734.561 183.25 734.231 183.1 733.891 182.95C733.551 182.63 733.181 182.55 732.771 182.67C732.271 182.46 731.771 182.25 731.271 182.03C729.391 180.77 727.22 180.61 725.18 180.06C720.65 178.84 716.07 177.52 711.47 177.82C711.37 177.75 711.261 177.72 711.141 177.72C710.431 177.36 709.741 177.14 709.151 177.67C708.431 177.76 707.72 177.86 707.01 177.96C702.53 177.76 698.681 179.02 695.091 180.87C690.741 182.49 686.801 184.64 683.281 187.36C681.491 188.32 679.961 189.56 678.521 190.89C674.871 193.25 671.94 196.28 668.98 199.29C668.08 200.53 666.711 201.44 666.141 202.92C665.531 203.05 665.341 203.51 665.141 203.98C663.891 204.98 662.85 206.13 662.3 207.63C662.16 207.9 662.02 208.17 661.87 208.44C661.22 209.3 660.57 210.16 659.91 211.02C659.81 211.14 659.7 211.25 659.6 211.37C658.51 213.04 657.41 214.7 656.32 216.37C653.22 220.24 650.91 224.55 649.11 229.16C648.73 229.98 648.36 230.8 647.98 231.63C647.11 232.69 646.19 233.73 646.47 235.32C646.16 235.93 645.86 236.54 645.55 237.15C644.76 237.62 644.431 238.31 644.641 239.25C644.421 239.82 644.2 240.39 643.97 240.96C642.81 242.6 642.17 244.46 641.99 246.5C642.16 246.37 642.32 246.24 642.47 246.1C642.33 246.24 642.17 246.37 641.99 246.5C641.91 246.7 641.83 246.91 641.75 247.11C641.81 247.26 641.85 247.4 641.87 247.54C641.84 247.4 641.8 247.26 641.75 247.11C639.89 251.25 638.461 255.54 637.901 260.15C637.811 260.47 637.71 260.79 637.62 261.11C637.05 262.43 636.36 263.71 636.68 265.31C636.64 265.64 636.59 265.97 636.55 266.3C635.41 268.63 635.18 271.22 635.05 273.85C635 274.18 634.951 274.52 634.891 274.85C634.231 276.13 633.96 277.49 634.36 279.02C634.31 279.26 634.261 279.5 634.211 279.73C633.551 281.08 633.5 282.54 633.97 284.1C633.92 284.33 633.871 284.56 633.831 284.79C633.521 285.35 633.501 285.95 633.831 286.6C633.831 286.87 633.82 287.14 633.81 287.41C633.45 287.82 633.551 288.28 633.841 288.76C633.821 289.01 633.801 289.26 633.781 289.51C633.181 290.62 633.59 291.83 633.93 293.03C633.93 293.29 633.93 293.55 633.93 293.81C633.59 296.66 633.87 299.55 634.88 302.46C634.91 302.76 634.931 303.05 634.961 303.35C634.591 303.71 634.641 304.1 635.081 304.5C635.041 305.13 635.211 305.74 635.581 306.33C635.251 307.06 635.161 307.79 635.961 308.51C636.041 308.95 636.11 309.39 636.19 309.83C636.36 313.7 637.481 317.47 639.341 321.17C639.161 323.43 639.82 325.56 641.48 327.53C641.67 328 641.87 328.47 642.06 328.94C641.81 330.32 642.16 331.55 643.67 332.47C643.78 332.71 643.88 332.96 643.99 333.2C643.75 333.7 643.94 334.1 644.48 334.43C644.58 334.7 644.69 334.97 644.79 335.23C644.48 335.92 644.89 336.4 645.54 336.82C645.59 337.29 645.701 337.73 646.141 338.09L646.091 338.13C646.501 340.25 647.69 342.11 649.11 343.9C649.29 344.11 649.471 344.31 649.651 344.52C649.941 346.53 651.03 348.22 652.72 349.68L652.771 349.76C652.501 350.49 652.98 350.91 653.68 351.24C654.16 351.9 654.63 352.57 655.11 353.23C655.16 354.54 655.93 355.47 657.24 356.11C657.5 356.73 658.06 357.11 658.63 357.48C659.59 359.73 661.55 361.14 663.67 362.42C663.96 362.67 664.25 362.92 664.55 363.17C666.15 365.89 669.181 367.15 671.711 368.59L671.74 368.56ZM725.711 185.98C726.401 186.33 727.03 187.01 727.75 187.17C727.03 187 726.401 186.33 725.711 185.98ZM693.76 359.19C693.3 359.3 692.851 359.27 692.391 359.19C692.841 359.28 693.29 359.31 693.75 359.19H693.76ZM694.97 355.72C695.1 355.26 695.31 354.85 695.57 354.46C695.31 354.85 695.1 355.27 694.97 355.72ZM701.32 357.73C700.32 357.37 699.61 357.44 699.13 357.87C699.6 357.44 700.32 357.37 701.32 357.73C701.62 357.2 701.92 356.67 702.23 356.14C701.93 356.67 701.63 357.2 701.32 357.73ZM720.81 358.74C720.3 358.94 719.72 359.03 719.16 359.16C719.71 359.03 720.3 358.95 720.81 358.74ZM691.97 335.26C691.36 334.7 690.561 334.19 690.711 333.45C690.561 334.18 691.36 334.7 691.97 335.26ZM691.3 328.91C694.12 328.52 694.921 326.95 694.781 324.85C694.911 326.95 694.12 328.51 691.3 328.91ZM720.72 344.46C720.67 344.6 720.63 344.76 720.62 344.91C720.63 344.76 720.68 344.6 720.72 344.46C720.44 344.29 720.13 344.12 719.91 343.91C720.12 344.12 720.43 344.29 720.72 344.46ZM721.651 343.94C721.501 344.18 721.32 344.38 721.04 344.44C721.32 344.37 721.511 344.18 721.651 343.94C722.561 344.3 723.2 344.27 723.69 344.03C723.2 344.27 722.561 344.29 721.651 343.94ZM722.081 342.05C722.381 341.52 722.68 341 722.99 340.47C722.69 341 722.381 341.52 722.081 342.05ZM696.891 325.74C696.111 324.93 695.34 324.12 694.56 323.32C695.34 324.13 696.111 324.94 696.891 325.74ZM736.43 346.98C736.12 346.82 735.811 346.62 735.701 346.34C735.821 346.62 736.12 346.82 736.43 346.98C736.77 347.15 737.08 347.19 737.37 347.15C737.08 347.19 736.78 347.15 736.43 346.98ZM700.93 305.88C701 305.56 701.03 305.24 701.04 304.92C701.04 305.24 701 305.56 700.93 305.88ZM701 304.13C700.85 302.96 700.27 301.81 699.16 300.69C700.27 301.81 700.84 302.96 701 304.13ZM696.82 298.26C696.89 298.3 696.951 298.34 697.021 298.39C696.951 298.35 696.89 298.31 696.82 298.26C697.56 297.31 698.31 296.35 699.05 295.4C698.31 296.36 697.56 297.31 696.82 298.26ZM701 285.35C701.7 286.27 702.521 287.05 703.451 287.73C702.521 287.05 701.71 286.27 701 285.35ZM709.201 275.24C708.931 275.1 708.67 274.96 708.42 274.81C708.67 274.96 708.941 275.1 709.201 275.24C709.381 275.22 709.571 275.22 709.781 275.24C709.571 275.21 709.381 275.21 709.201 275.24ZM768.72 299.41C768.43 299.66 768.15 299.92 767.86 300.18C768.15 299.92 768.43 299.67 768.72 299.41C768.99 299.44 769.25 299.46 769.48 299.47C769.25 299.46 769 299.44 768.72 299.41ZM722.081 249.63C721.481 248.76 720.731 247.97 720.091 247.13C720.731 247.98 721.481 248.77 722.081 249.63ZM724.391 240.62C724.171 241 723.96 241.31 723.85 241.6C723.95 241.31 724.161 240.99 724.391 240.62ZM721.24 227.12C721.28 226.84 721.26 226.54 721.29 226.25C721.26 226.54 721.29 226.84 721.24 227.12ZM758.18 243.92C757.85 244.11 757.55 244.31 757.3 244.54C757.55 244.32 757.84 244.11 758.18 243.92ZM736.48 224.8C735.96 225.09 735.42 225.31 734.86 225.43C734.3 225.56 733.711 225.6 733.091 225.55C733.711 225.6 734.3 225.55 734.86 225.43C735.42 225.3 735.96 225.09 736.48 224.8C736.64 224.86 736.79 224.91 736.94 224.93C736.79 224.91 736.64 224.87 736.48 224.8ZM727.32 210.12C727.45 210.3 727.68 210.52 727.76 210.68C727.67 210.51 727.44 210.3 727.31 210.12C727.26 210.07 727.2 210.03 727.13 209.99C727.19 210.03 727.25 210.07 727.31 210.12H727.32ZM738.87 194.01C738.44 194.13 738.041 194.31 737.701 194.54C738.051 194.32 738.44 194.14 738.87 194.01ZM724.04 187.19C723.76 187.49 723.451 187.66 723.141 187.62C723.451 187.66 723.76 187.49 724.04 187.18V187.19ZM729.42 190.78C729.06 190.54 728.87 190.27 728.8 190.01C728.87 190.27 729.06 190.53 729.42 190.78ZM727.72 192.13C727.43 192.21 727.251 192.43 727.081 192.67C727.241 192.43 727.42 192.21 727.72 192.13ZM751.1 208.85C750.81 208.36 750.52 207.87 750.24 207.38C750.53 207.87 750.82 208.36 751.11 208.85H751.1ZM710.11 185.11C710.61 185.44 710.9 185.8 711 186.17C710.91 185.8 710.61 185.45 710.11 185.11ZM732.44 198.79C732.35 198.57 732.27 198.35 732.18 198.13C732.29 197.93 732.4 197.72 732.5 197.52C732.39 197.72 732.29 197.93 732.18 198.13C732.27 198.35 732.35 198.57 732.44 198.79C731.68 199.23 731.75 200.05 731.76 200.84C731.76 200.05 731.68 199.23 732.44 198.79ZM698.31 180.55C698.31 180.55 698.35 180.54 698.36 180.53C698.34 180.53 698.32 180.54 698.31 180.55C697.89 180.44 697.53 180.55 697.17 180.7C697.52 180.55 697.88 180.44 698.31 180.55ZM730.85 202.65C730.57 202.46 730.29 202.27 730.01 202.08C730.88 201.1 730.62 199.99 730.31 198.86C730.62 199.99 730.881 201.1 730.021 202.08C730.301 202.27 730.58 202.46 730.85 202.65C730.96 202.6 731.061 202.55 731.141 202.5C731.051 202.56 730.96 202.61 730.85 202.65C730.72 202.93 730.59 203.21 730.47 203.49C730.6 203.21 730.73 202.93 730.85 202.65ZM696.36 188.42C696.52 188.51 696.681 188.59 696.831 188.68C696.671 188.59 696.51 188.51 696.36 188.42ZM692.92 191.2C693.44 190.27 693.97 189.34 694.49 188.42C693.97 189.35 693.44 190.28 692.92 191.2C693.61 191.85 693.9 192.42 693.93 192.95C693.91 192.42 693.62 191.85 692.92 191.2ZM690.25 194.51C690.27 194.91 690.201 195.28 690.081 195.61C690.201 195.27 690.27 194.91 690.25 194.51ZM703.92 202.7C704.05 202.53 704.141 202.36 704.211 202.18C704.151 202.36 704.05 202.53 703.92 202.7ZM665.32 204.58C665.36 204.7 665.39 204.81 665.42 204.92C665.4 204.81 665.36 204.7 665.32 204.58ZM676.47 211.42C676.92 210.62 677.37 209.82 677.82 209.03C677.8 208.94 677.77 208.85 677.74 208.76C677.77 208.85 677.79 208.94 677.82 209.03C677.37 209.83 676.92 210.63 676.47 211.42C676.33 211.69 676.181 211.96 676.021 212.22C676.181 211.96 676.33 211.7 676.47 211.42ZM678.141 212.89C678.111 213.31 678.08 213.73 678.05 214.16C678.08 213.74 678.111 213.32 678.141 212.89ZM663.98 207.01C663.82 207.18 663.66 207.33 663.47 207.44C663.66 207.33 663.83 207.18 663.98 207.01ZM688.81 244.73C689.49 245.18 690.16 245.67 691.05 245.38C690.16 245.66 689.49 245.17 688.81 244.73ZM650.35 227.73C650.4 227.8 650.44 227.85 650.47 227.9C650.44 227.85 650.41 227.79 650.35 227.73ZM679.57 281.15C679.71 280.94 679.891 280.78 680.081 280.65C679.891 280.77 679.71 280.93 679.57 281.15ZM678.85 287.22C678.92 287.37 679.01 287.53 679.1 287.68C679.01 287.52 678.93 287.37 678.85 287.22ZM675.451 295.16C674.261 294.63 673.481 294.82 672.901 295.39C673.471 294.83 674.251 294.63 675.451 295.16ZM676.63 302.01C675.92 300.52 675.41 299.03 675.29 297.53C675.41 299.03 675.93 300.52 676.63 302.01C678.4 303.27 678.99 304.27 678.49 305.36C678.99 304.27 678.39 303.27 676.63 302.01ZM677.66 320.12C677.79 319.39 678.02 318.66 677.99 317.92C678.01 318.66 677.78 319.39 677.66 320.12ZM656.081 331.61C656.431 331.83 656.6 332.05 656.66 332.26C656.6 332.04 656.431 331.83 656.081 331.61ZM662.36 335.83C661.69 335.58 661.02 335.34 660.35 335.09C660 335.46 659.71 335.75 659.44 335.95C659.7 335.74 660 335.46 660.35 335.09C661.02 335.34 661.69 335.59 662.36 335.83ZM657.04 334.28C657.19 334.14 657.291 333.94 657.391 333.74C657.301 333.95 657.2 334.14 657.04 334.28ZM691.461 354.67C692.071 354.41 692.61 354.05 693.06 353.59C692.94 353 692.821 352.41 692.701 351.82C692.561 351.74 692.431 351.66 692.281 351.6C692.131 352 691.94 352.32 691.67 352.52C691.94 352.31 692.131 352 692.281 351.6C692.051 351.44 691.83 351.27 691.61 351.11C688.19 349.47 684.53 348.82 681.01 347.59C680.85 347.4 680.691 347.2 680.531 347.01C680.231 346.84 679.93 346.67 679.63 346.51C679.49 346.44 679.36 346.39 679.24 346.34C679.37 346.38 679.5 346.44 679.63 346.51C679.93 346.68 680.231 346.85 680.531 347.01C680.291 344.51 680.3 342 679.73 339.53C679.11 336.87 678.721 334.34 679.521 331.86C679.791 331.01 679.79 330.02 679.01 329.12L678.961 329.08C678.691 327.17 676.921 325.9 675.961 324.29C676.001 324.17 675.981 324.04 675.901 323.92C675.641 323.76 675.38 323.6 675.13 323.43C675.39 323.59 675.641 323.75 675.901 323.92C676.211 322.45 678.11 322.01 678.3 320.46C679.51 318.38 679.29 316.43 677.1 314.36C674.26 311.67 674.441 309.86 677.451 308.3C680.231 306.85 680.52 303.83 678.12 301.25C675.59 298.53 675.92 296.19 679.04 294.76C681.93 293.44 682.55 292 681.36 289.44L681.341 289.38C681.551 288.87 681.16 288.49 680.85 288.06C678.29 284.54 678.971 282.2 682.901 280.98C686.371 279.9 686.81 276.5 683.85 273.6C683.83 273.47 683.75 273.37 683.62 273.3C683.46 271.27 684.57 269.72 685.24 268C686.05 267.57 687.18 267.67 687.81 266.95C688.21 266.69 688.6 266.43 689 266.17C689.83 266.08 690.25 265.74 689.85 264.88C690.25 264.48 690.3 263.98 690.1 263.41C690.32 261.83 689.27 260.68 688.07 259.58C688.12 259.36 688.161 259.13 688.211 258.91C687.921 258.54 687.631 258.17 687.341 257.8C685.771 258.53 685.14 258.52 684.67 257.15C685.15 258.52 685.781 258.52 687.341 257.8C687.631 258.17 687.921 258.54 688.211 258.91C688.781 256.89 689.861 255.13 690.951 253.38C691.971 252.97 693.471 253.13 693.641 251.69C693.781 251.43 693.92 251.16 694.06 250.9C695.1 250.18 694.49 249.03 694.51 248.04C694.88 247.3 694.511 246.9 693.651 246.73C693.321 246.45 692.99 246.16 692.66 245.88C692.5 245.96 692.36 245.98 692.22 245.98C692.08 245.98 691.95 245.93 691.82 245.87C691.95 245.93 692.08 245.97 692.22 245.98C692.36 245.98 692.51 245.96 692.66 245.88C692.58 245.55 692.49 245.21 692.41 244.88C692.74 242.8 692.431 240.49 694.151 238.92C694.721 238.48 695.8 238.63 695.94 237.7L696.11 237.87C697.62 237.98 697.971 237.44 697.031 236.19L696.8 236.13C696.53 235.08 696.001 234.17 695.341 233.34C696.001 234.17 696.53 235.07 696.8 236.13C697.79 234.63 697.02 233.43 695.56 232.2C692.03 229.23 692.76 224.73 696.88 223.76C699.36 223.18 700.001 222.15 699.201 220.03C699.111 218.35 697.94 217.1 696.69 215.89C696.31 215.71 695.94 215.53 695.56 215.35C695.03 215.06 694.471 214.79 693.951 214.48C694.481 214.78 695.03 215.05 695.56 215.35C695.94 215.53 696.31 215.71 696.69 215.89C696.9 214.24 697.831 212.94 698.581 211.55C699.321 210.19 700.71 209.98 702.38 210.05C704.36 210.14 705.86 209.56 705.61 207.36C705.61 206.66 705.591 205.96 705.581 205.25C706.981 203.97 708.63 203.25 710.87 203.49C712.68 203.69 714.151 203.09 715.211 201.87C718.571 201.73 721.96 201.88 725.36 202.04C727.13 202.12 728.35 202.74 729.44 204C729.4 204.13 729.361 204.27 729.331 204.41C728.931 204.95 728.29 205.4 728.82 206.26C728.2 207.48 727.571 208.71 726.951 209.93C721.991 213.04 722.08 215.47 727.3 219.08C727.52 219.23 727.72 219.41 727.93 219.58C729.31 220.64 730.43 221.7 729.67 223.41C728.97 224.99 727.721 225.4 725.841 225.13C724.011 224.86 722.171 224.75 720.781 225.88V225.9C719.631 225.53 719.05 226.12 718.51 226.78C718.02 228.26 717.301 229.7 718.341 231.42C717.721 232.81 719.3 233.63 719.93 234.61C721.1 236.41 720.791 237.59 719.461 238.76C718.711 239.42 717.75 239.54 716.82 239.82C713.88 240.71 712.831 243.59 714.521 246C714.571 246.13 714.651 246.25 714.771 246.35C714.831 246.7 714.88 247.06 714.94 247.41C714.84 248.03 714.73 248.65 714.63 249.28C714.14 251.45 712.8 253.2 711.82 255.13C712.27 255.36 712.72 255.58 713.18 255.81C712.73 255.58 712.28 255.36 711.82 255.13C711.62 255.35 711.42 255.57 711.22 255.79C709.35 256.19 708.74 257.29 709.38 259.1C709.37 259.24 709.351 259.39 709.331 259.53C708.711 262.02 707.56 264.24 705.97 266.21C705.4 266.92 704.501 267.38 704.711 268.5C703.921 269.63 702.74 270.56 702.88 272.18C700.64 276.2 697.61 279.85 697.38 284.82C697.36 285.19 697.12 285.53 696.91 285.85C695.4 288.2 694.83 290.96 693.85 293.55C693.66 294.06 693.85 294.46 694.35 294.82C693.82 295.74 693.341 296.67 692.461 297.38C691.691 298 690.711 298.75 690.581 299.63C690.171 302.51 689.13 305.14 688.48 307.91C686.99 314.22 687.55 320.94 687.51 327.54C687.51 327.71 687.841 327.92 688.021 328.11C687.551 329.28 688.291 330.43 688.641 331.59C688.081 335.28 690.26 338.59 691.93 341.98C691.87 342.24 691.8 342.51 691.74 342.77C691.29 343.55 691.19 344.34 692.01 345.18L692.141 345.21C691.571 346.44 691.52 347.73 692.24 349.1C692.2 349.22 692.191 349.35 692.211 349.48C692.011 350.03 691.81 350.59 691.61 351.14C691.83 351.3 692.061 351.47 692.281 351.63C692.421 351.7 692.561 351.77 692.701 351.85C692.821 351.73 692.94 351.62 693.07 351.5C692.95 351.62 692.831 351.74 692.701 351.85C692.821 352.44 692.94 353.03 693.06 353.62C692.61 354.08 692.071 354.43 691.461 354.7C690.851 354.96 690.18 355.14 689.48 355.21C690.19 355.13 690.861 354.96 691.461 354.7V354.67ZM681.26 352.23C680.96 351.74 680.83 351.26 680.79 350.78C680.83 351.26 680.95 351.74 681.26 352.23ZM694.51 360.09C694.59 360.3 694.651 360.53 694.641 360.78C695.121 361.15 695.371 361.57 695.401 361.96C695.381 361.56 695.131 361.15 694.641 360.78C694.641 360.53 694.59 360.31 694.51 360.09ZM676.141 350.33C675.851 350.64 675.68 351.1 675.5 351.54C675.68 351.1 675.861 350.64 676.141 350.33Z" fill="#003382"/>
<path d="M273.42 607.68C283.64 608.57 292.41 605.57 300.02 600.12C300.49 600.13 300.88 600.03 301.11 599.65C302.16 599.4 302.83 598.71 303.61 598.16C304.52 598.24 304.99 597.57 305.7 597.31C306.4 597.42 306.75 597.1 306.97 596.61C307.12 596.61 307.27 596.59 307.4 596.54C308.68 596.55 309.36 595.9 309.82 595C310.27 594.99 310.63 594.85 310.83 594.49C313.56 593.63 315.65 592.12 317.17 590.04C317.51 589.26 318.2 588.75 319.04 588.37C320.04 588.37 320.6 587.95 320.76 587.13C322.5 585.32 324.99 584.01 325.87 581.63C326.67 581.29 327.49 580.96 327.48 580.04C328.37 579.86 329.04 579.51 329.06 578.63C329.64 577.98 330.25 577.34 330.45 576.51C331.42 576.43 331.59 575.85 331.59 575.17C332.04 574.71 332.4 574.21 332.4 573.58C333.42 573.25 333.9 572.59 333.96 571.68C334.06 571.28 334.17 570.89 334.27 570.49C334.46 570.3 334.66 570.1 334.85 569.91C334.92 569.83 334.94 569.74 334.91 569.65C335.5 569.5 335.93 569.23 335.87 568.63C336.59 567 337.32 565.38 338.04 563.75C340.74 560.08 341.75 555.89 342.82 551.72C343.11 550.51 343.41 549.31 343.7 548.1C344.76 547.04 344.35 545.72 344.46 544.49C344.58 543.42 344.71 542.36 344.83 541.29C345.66 540.74 345.41 539.91 345.5 539.18C346.39 532.49 345.49 525.88 344.21 519.2C342.25 508.94 338.39 499.16 334.12 489.44C333.83 488.77 333.48 487.97 332.55 487.61C332.55 486.28 331.69 485.17 331.09 483.99C330.48 482.59 330.11 481.1 328.79 479.98C328.83 479.87 328.81 479.76 328.76 479.65C328.8 479.07 328.43 478.72 327.81 478.53C327.78 478.26 327.75 478 327.73 477.73C327.85 477.15 327.46 476.83 326.88 476.61C326.59 475.97 326.35 475.31 326 474.7C322.95 469.27 319.34 464.1 315.71 458.92C311.11 452.36 305.56 446.45 299.55 440.8C294.84 436.37 290.26 431.83 286.46 426.79C284.6 424.32 282.74 421.85 280.87 419.38C277.21 416.22 272.52 414.72 267.67 413.89C265.03 413.44 262.34 412.19 259.51 413.09C257.88 412.87 256.24 412.69 254.61 412.95C254.2 412.71 253.82 412.72 253.5 413.06C253.14 413.06 252.77 413.06 252.41 413.06C251.97 412.91 251.59 412.99 251.28 413.27C250.74 413.29 250.19 413.3 249.65 413.32C247.42 412.96 245.37 413.72 243.3 414.07C238.67 414.85 233.97 415.56 229.91 417.76C229.79 417.74 229.67 417.76 229.57 417.81C228.78 417.78 228.06 417.86 227.75 418.59C227.14 418.97 226.53 419.36 225.92 419.75C221.77 421.44 218.79 424.18 216.31 427.37C213.03 430.65 210.35 434.26 208.29 438.19C207.07 439.81 206.19 441.58 205.43 443.39C203.1 447.06 201.7 451.04 200.27 455.01C199.97 456.51 199.11 457.91 199.2 459.49C198.7 459.86 198.72 460.37 198.74 460.87C198.02 462.3 197.56 463.78 197.68 465.37C197.66 465.67 197.65 465.98 197.63 466.28C197.4 467.33 197.16 468.39 196.93 469.44C196.88 469.59 196.84 469.74 196.79 469.89C196.49 471.86 196.19 473.83 195.89 475.8C194.69 480.61 194.39 485.49 194.67 490.43C194.67 491.33 194.67 492.24 194.67 493.14C194.32 494.47 193.92 495.8 194.84 497.12C194.82 497.8 194.79 498.49 194.77 499.17C194.25 499.93 194.24 500.69 194.82 501.45C194.86 502.06 194.89 502.67 194.93 503.28C194.56 505.25 194.76 507.21 195.44 509.14C195.55 508.95 195.63 508.76 195.71 508.58C195.64 508.77 195.55 508.95 195.44 509.14C195.45 509.36 195.47 509.58 195.48 509.8C195.51 514.34 196.01 518.83 197.42 523.26C197.47 523.59 197.52 523.92 197.57 524.25C197.6 525.69 197.52 527.14 198.47 528.46C198.57 528.78 198.66 529.1 198.76 529.41C198.7 532 199.57 534.46 200.55 536.9C200.64 537.23 200.73 537.55 200.83 537.88C200.76 539.32 201.09 540.67 202.09 541.89C202.14 542.13 202.2 542.36 202.25 542.6C202.21 544.11 202.78 545.46 203.86 546.67C203.91 546.9 203.96 547.13 204.02 547.36C203.97 548 204.21 548.55 204.77 549C204.88 549.25 204.99 549.5 205.09 549.74C204.93 550.26 205.22 550.64 205.68 550.95C205.77 551.18 205.85 551.42 205.94 551.65C205.86 552.91 206.74 553.84 207.55 554.79C207.66 555.03 207.77 555.26 207.88 555.5C208.76 558.24 210.22 560.74 212.35 562.96C212.5 563.22 212.64 563.48 212.79 563.73C212.6 564.22 212.81 564.54 213.38 564.73C213.6 565.32 214.01 565.8 214.6 566.19C214.6 566.99 214.82 567.7 215.86 568.01C216.11 568.38 216.37 568.74 216.62 569.11C218.39 572.56 220.99 575.51 224.21 578.1C224.99 580.23 226.48 581.89 228.81 582.99C229.18 583.34 229.55 583.68 229.92 584.03C230.27 585.39 231.1 586.36 232.85 586.56C233.05 586.74 233.25 586.91 233.45 587.09C233.44 587.64 233.78 587.93 234.41 588C234.61 588.2 234.82 588.4 235.02 588.6C235.02 589.35 235.6 589.62 236.36 589.73C236.6 590.13 236.89 590.49 237.44 590.63L237.42 590.69C238.67 592.45 240.54 593.64 242.57 594.67C242.82 594.78 243.07 594.89 243.32 595C244.42 596.71 246.12 597.79 248.26 598.41L248.34 598.47C248.4 599.25 249.01 599.43 249.78 599.43C250.49 599.83 251.2 600.24 251.91 600.64C252.51 601.81 253.59 602.33 255.04 602.37C255.54 602.83 256.21 602.94 256.88 603.03C258.69 604.67 261.06 605.13 263.52 605.42C263.89 605.52 264.26 605.63 264.63 605.73C267.22 607.54 270.5 607.42 273.4 607.67L273.42 607.68ZM246.25 419.23C247.02 419.27 247.87 419.61 248.6 419.47C247.88 419.62 247.02 419.27 246.25 419.23ZM289.51 589.97C289.14 590.27 288.72 590.43 288.27 590.53C288.72 590.42 289.14 590.26 289.51 589.97ZM288.95 588.2C289.02 587.57 289.09 586.94 289.17 586.32C289.1 586.95 289.03 587.58 288.95 588.2ZM313.9 578.28C313.52 578.68 313.02 579 312.58 579.35C313.03 579 313.52 578.68 313.9 578.28C315.06 577.86 316.2 577.37 317.36 577.13C316.2 577.37 315.05 577.86 313.9 578.28ZM277.89 568.98C277.89 569.09 277.91 569.19 277.97 569.28C277.91 569.19 277.88 569.09 277.89 568.98C277.1 568.73 276.16 568.59 275.99 567.86C276.16 568.59 277.1 568.72 277.89 568.98ZM274.64 563.48C277.04 561.94 277.11 560.19 276.11 558.34C277.11 560.19 277.04 561.95 274.64 563.48ZM307.86 565.34C307.88 565.49 307.9 565.65 307.95 565.79C307.9 565.65 307.87 565.49 307.86 565.34ZM308.49 564.48C308.46 564.76 308.37 565.02 308.14 565.19C308.37 565.01 308.45 564.76 308.49 564.48C309.46 564.42 310.04 564.14 310.38 563.71C310.04 564.13 309.46 564.42 308.49 564.48ZM275.26 557.04C275.26 556.9 275.25 556.76 275.24 556.62C275.24 556.76 275.24 556.9 275.26 557.04ZM323.19 561.07C322.84 561.05 322.48 561 322.26 560.79C322.48 560.99 322.84 561.05 323.19 561.07C323.57 561.07 323.87 560.99 324.11 560.84C323.87 560.99 323.57 561.08 323.19 561.07ZM272.88 552.73C273.03 552.43 273.27 552.25 273.54 552.11C273.26 552.25 273.03 552.44 272.88 552.73ZM273.77 538.53C273.7 538.21 273.59 537.91 273.47 537.61C273.59 537.9 273.7 538.21 273.77 538.53ZM313.89 539.18C313.75 539.77 313.89 540.36 314.19 540.81C313.89 540.36 313.76 539.76 313.89 539.18ZM273.11 536.92C272.48 535.92 271.48 535.11 270 534.56C271.48 535.12 272.48 535.92 273.11 536.92ZM266.86 533.33C266.94 533.34 267.02 533.35 267.09 533.36C267.01 533.36 266.93 533.34 266.86 533.33C267.14 532.15 267.42 530.97 267.69 529.8C267.42 530.98 267.14 532.16 266.86 533.33ZM265.27 519.85C266.29 520.39 267.36 520.76 268.49 520.99C267.36 520.76 266.3 520.39 265.27 519.85ZM268.5 507.24C268.2 507.22 267.9 507.2 267.61 507.18C267.9 507.21 268.2 507.23 268.5 507.24C268.66 507.15 268.83 507.07 269.03 507.01C268.83 507.07 268.65 507.15 268.5 507.24ZM332.69 504.37C332.53 504.72 332.38 505.07 332.23 505.43C332.38 505.08 332.54 504.73 332.69 504.37C332.95 504.28 333.19 504.19 333.4 504.11C333.18 504.19 332.95 504.28 332.69 504.37ZM265.87 486.78C265.77 487.28 265.55 487.64 265.18 487.82C265.55 487.64 265.77 487.27 265.87 486.78C265.5 486.74 265.13 486.7 264.75 486.65C265.12 486.69 265.49 486.73 265.87 486.78ZM269.52 478.59C268.61 478.05 267.6 477.65 266.66 477.15C267.59 477.65 268.61 478.06 269.52 478.59ZM259.05 457.67C259.82 457.3 260.51 456.81 261.23 456.38C260.51 456.82 259.82 457.3 259.05 457.67ZM257.6 442.34C258.11 442.77 258.59 443.04 259.06 443.15C258.59 443.03 258.11 442.77 257.6 442.34ZM261.57 421.04C261.23 421.33 260.95 421.66 260.72 422.01C260.94 421.66 261.23 421.34 261.57 421.04ZM245.24 421.03C245.11 421.42 244.9 421.7 244.6 421.8C244.9 421.7 245.1 421.42 245.24 421.03ZM251.64 422.05C251.21 421.98 250.92 421.81 250.76 421.61C250.93 421.81 251.22 421.98 251.64 422.05ZM250.65 423.99C250.42 424.18 250.34 424.46 250.3 424.75C250.35 424.46 250.42 424.19 250.65 423.99ZM252.92 425.39C253.34 424.9 253.62 424.32 253.97 423.79C253.62 424.33 253.34 424.9 252.92 425.39ZM278.88 429.42C279.62 431.14 280.36 432.86 281.4 434.45C280.36 432.87 279.62 431.15 278.88 429.42ZM231.72 424.96C232.31 425.06 232.73 425.26 232.97 425.55C232.73 425.25 232.32 425.05 231.72 424.96ZM257.72 428.07C257.21 428.79 257.62 429.5 257.95 430.22C257.61 429.5 257.21 428.79 257.72 428.07ZM219.09 425.74C219.09 425.74 219.12 425.72 219.13 425.7C219.12 425.71 219.1 425.73 219.09 425.74ZM257.89 432.24C257.56 432.18 257.23 432.13 256.89 432.07C257.27 430.82 256.57 429.91 255.81 429.02C256.56 429.91 257.27 430.82 256.89 432.07C257.22 432.13 257.55 432.18 257.89 432.24ZM220.61 433.7C220.48 433.92 220.31 434.09 220.12 434.21C220.31 434.08 220.48 433.91 220.61 433.7ZM218.64 437.67C218.73 436.61 218.82 435.55 218.9 434.48C218.81 435.54 218.72 436.6 218.64 437.66C219.54 437.96 220.04 438.36 220.29 438.83C220.05 438.35 219.55 437.96 218.64 437.66V437.67ZM217.59 441.79C217.77 442.15 217.87 442.51 217.89 442.87C217.89 442.99 217.9 443.11 217.89 443.23C217.89 443.11 217.89 442.99 217.89 442.87C217.86 442.51 217.77 442.15 217.59 441.79ZM234.58 442.71C234.53 443.02 234.49 443.33 234.44 443.63C234.49 443.32 234.53 443.01 234.58 442.71ZM233.44 443.53C233.49 443.33 233.5 443.13 233.49 442.94C233.51 443.13 233.49 443.32 233.45 443.53H233.44ZM199.14 461.34C199.04 461.23 198.94 461.11 198.85 461C198.95 461.11 199.05 461.23 199.14 461.34C199.23 461.43 199.31 461.52 199.37 461.61C199.3 461.52 199.22 461.43 199.14 461.34ZM212.13 462.9C212.21 461.99 212.28 461.07 212.36 460.16C212.3 460.09 212.24 460.02 212.18 459.95C212.24 460.02 212.31 460.09 212.36 460.16C212.28 461.07 212.21 461.99 212.13 462.9C212.11 463.21 212.09 463.51 212.05 463.81C212.09 463.51 212.11 463.2 212.13 462.9ZM198.44 463.61C198.56 463.46 198.68 463.3 198.8 463.14C198.68 463.3 198.56 463.45 198.44 463.61ZM198.94 464.11C198.87 464.33 198.78 464.54 198.65 464.72C198.77 464.54 198.86 464.33 198.94 464.11ZM231.67 474.26C232.54 473.97 233.51 473.94 234.22 473.41C233.51 473.94 232.54 473.98 231.67 474.26ZM196.02 478.62C196.62 479.44 196.6 480.28 196.46 481.12C196.6 480.29 196.62 479.45 196.02 478.62ZM237.25 488.03C238.06 488.15 238.87 488.32 239.56 487.69C238.87 488.32 238.05 488.15 237.25 488.03ZM195.2 488.63C195.28 488.67 195.33 488.7 195.38 488.74C195.33 488.71 195.28 488.67 195.2 488.63ZM240.26 511.75C239.81 511.24 239.25 510.92 238.62 510.75C239.25 510.91 239.81 511.24 240.26 511.75ZM243.19 516.11C242.98 516.25 242.78 516.39 242.57 516.52C242.78 516.38 242.98 516.24 243.19 516.11ZM243.64 530.69C243.97 530.8 244.31 530.9 244.64 531.02C244.31 530.91 243.98 530.8 243.64 530.69ZM245.92 530.79C246.05 530.9 246.19 531 246.34 531.11C246.5 531.13 246.65 531.16 246.8 531.18C246.65 531.15 246.49 531.13 246.34 531.11C246.19 531.01 246.06 530.9 245.92 530.79ZM250.07 545.16C248.81 544.1 247.72 542.96 246.98 541.65C247.71 542.96 248.8 544.1 250.07 545.16ZM253.58 559.66C254.83 559.72 255.68 559.09 256.61 557.73C255.69 559.09 254.83 559.72 253.58 559.66ZM258.57 561.19C258.38 560.47 258.28 559.72 257.96 559.05C258.29 559.71 258.38 560.47 258.58 561.19H258.57ZM243.76 580.64C244.17 580.69 244.41 580.82 244.56 580.99C244.42 580.82 244.17 580.69 243.76 580.64ZM249.09 582.01C248.93 582.49 248.78 582.87 248.62 583.17C248.77 582.87 248.92 582.49 249.09 582.01ZM245.74 582.66C245.82 582.47 245.83 582.25 245.83 582.02C245.83 582.25 245.83 582.47 245.74 582.66ZM285.54 586.82C285.98 586.33 286.32 585.77 286.54 585.17C286.18 584.68 285.83 584.2 285.47 583.71C285.31 583.69 285.16 583.68 285 583.68C284.73 583.63 284.45 583.57 284.18 583.52C280.39 583.46 276.79 584.39 273.08 584.75C272.85 584.64 272.63 584.53 272.4 584.42C272.06 584.39 271.71 584.36 271.37 584.34C271.22 584.34 271.07 584.34 270.94 584.35C271.07 584.34 271.21 584.33 271.37 584.34C271.71 584.37 272.06 584.4 272.4 584.42C271.14 582.25 270.11 579.96 268.55 577.96C266.87 575.8 265.46 573.66 265.16 571.07C265.05 570.19 264.64 569.28 263.56 568.79L263.49 568.77C262.45 567.15 260.31 566.73 258.76 565.66C258.75 565.53 258.68 565.43 258.55 565.35C258.25 565.31 257.95 565.27 257.65 565.23C257.95 565.27 258.25 565.31 258.56 565.35C258.23 563.88 259.77 562.69 259.3 561.2C259.53 558.8 258.52 557.12 255.66 556.16C251.95 554.9 251.37 553.18 253.45 550.51C255.38 548.03 254.37 545.16 251.12 543.82C247.68 542.4 247.01 540.14 249.25 537.54C251.32 535.13 251.29 533.57 249.14 531.74L249.1 531.69C249.08 531.14 248.56 530.95 248.1 530.7C244.31 528.57 243.95 526.16 247.01 523.41C249.71 520.98 248.69 517.71 244.8 516.31C244.73 516.2 244.61 516.14 244.46 516.14C243.47 514.36 243.83 512.49 243.72 510.65C244.27 509.92 245.35 509.54 245.62 508.62C245.87 508.22 246.12 507.81 246.37 507.41C247.08 506.99 247.32 506.5 246.6 505.88C246.79 505.35 246.63 504.87 246.21 504.44C245.75 502.92 244.32 502.31 242.76 501.81C242.71 501.59 242.65 501.36 242.6 501.14C242.18 500.93 241.77 500.71 241.35 500.5C240.23 501.81 239.66 502.07 238.65 501.03C239.66 502.07 240.23 501.82 241.35 500.5C241.77 500.72 242.18 500.93 242.6 501.14C242.27 499.06 242.52 497.02 242.78 494.97C243.54 494.17 244.96 493.69 244.52 492.31C244.54 492.01 244.56 491.71 244.57 491.41C245.21 490.32 244.18 489.53 243.78 488.62C243.81 487.79 243.31 487.58 242.45 487.79C242.03 487.67 241.61 487.55 241.19 487.43C241.08 487.57 240.96 487.65 240.83 487.7C240.96 487.65 241.08 487.56 241.19 487.43C240.97 487.16 240.76 486.9 240.54 486.63C239.97 484.6 238.73 482.63 239.64 480.49C239.97 479.85 241.02 479.54 240.76 478.64L240.99 478.72C242.41 478.19 242.5 477.55 241.12 476.81L240.89 476.85C240.2 476.01 239.35 475.4 238.4 474.92C239.35 475.4 240.2 476 240.89 476.85C241.16 475.07 239.96 474.3 238.12 473.8C233.67 472.58 232.46 468.18 235.8 465.58C237.81 464.02 237.96 462.81 236.35 461.22C235.57 459.73 233.98 459.09 232.34 458.5C231.92 458.5 231.51 458.49 231.09 458.48C230.48 458.44 229.87 458.42 229.26 458.36C229.87 458.42 230.48 458.43 231.09 458.48C231.51 458.48 231.92 458.49 232.34 458.5C231.84 456.92 232.14 455.34 232.25 453.77C232.35 452.22 233.53 451.45 235.08 450.83C236.92 450.09 238.04 448.93 236.89 447.04C236.59 446.41 236.29 445.77 235.98 445.14C236.71 443.39 237.91 442.05 240.05 441.33C241.78 440.75 242.86 439.6 243.31 438.04C246.3 436.51 249.45 435.23 252.61 433.95C254.25 433.28 255.62 433.34 257.13 434.03C257.15 434.17 257.17 434.31 257.2 434.44C257.06 435.09 256.67 435.77 257.51 436.33C257.45 437.7 257.4 439.07 257.34 440.44C254.13 445.34 255.23 447.51 261.48 448.61C261.74 448.66 262 448.74 262.26 448.8C263.96 449.19 265.41 449.68 265.44 451.55C265.46 453.28 264.5 454.18 262.68 454.71C260.9 455.23 259.19 455.89 258.39 457.51V457.53C257.2 457.67 256.91 458.45 256.7 459.28C256.87 460.83 256.82 462.44 258.49 463.57C258.51 465.1 260.28 465.18 261.27 465.81C263.08 466.95 263.3 468.16 262.58 469.78C262.18 470.69 261.35 471.2 260.63 471.85C258.33 473.89 258.57 476.94 261.12 478.42C261.22 478.52 261.34 478.59 261.49 478.63C261.69 478.93 261.89 479.22 262.08 479.52C262.24 480.13 262.41 480.74 262.57 481.35C263.03 483.53 262.54 485.68 262.46 487.84C262.37 488.12 262.28 488.4 262.19 488.69C260.66 489.84 260.56 491.09 261.9 492.47C261.95 492.61 261.99 492.74 262.03 492.88C262.5 495.4 262.39 497.9 261.77 500.35C261.55 501.23 260.92 502.03 261.58 502.96C261.34 504.32 260.65 505.66 261.45 507.06C261.09 511.65 259.86 516.23 261.73 520.84C261.87 521.18 261.79 521.6 261.73 521.97C261.34 524.74 261.97 527.49 262.16 530.24C262.2 530.78 262.55 531.07 263.15 531.19C263.05 532.25 263.01 533.29 262.5 534.31C262.06 535.2 261.48 536.28 261.73 537.14C262.56 539.92 262.71 542.75 263.27 545.54C264.55 551.9 267.86 557.77 270.58 563.78C270.65 563.93 271.04 563.99 271.28 564.08C271.34 565.34 272.49 566.08 273.29 566.98C274.32 570.57 277.69 572.67 280.61 575.05C280.66 575.32 280.72 575.58 280.77 575.85C280.69 576.74 280.93 577.51 282.02 577.93L282.15 577.9C282.15 579.25 282.64 580.45 283.86 581.4C283.87 581.53 283.92 581.65 283.99 581.76C284.04 582.35 284.09 582.93 284.14 583.52C284.41 583.58 284.68 583.63 284.96 583.68C285.12 583.68 285.27 583.69 285.43 583.71C285.49 583.55 285.55 583.39 285.62 583.24C285.56 583.4 285.5 583.56 285.43 583.71C285.79 584.2 286.14 584.68 286.5 585.17C286.28 585.77 285.94 586.32 285.5 586.82C285.06 587.31 284.52 587.75 283.91 588.11C284.52 587.74 285.06 587.31 285.5 586.82H285.54ZM290.57 590.48C290.74 590.64 290.88 590.82 290.97 591.05C291.56 591.19 291.96 591.46 292.15 591.81C291.96 591.46 291.56 591.18 290.97 591.05C290.87 590.82 290.73 590.64 290.57 590.48ZM269.79 589.28C269.66 589.69 269.69 590.17 269.71 590.65C269.69 590.17 269.66 589.68 269.79 589.28ZM272.51 600.07C273.27 600.19 274.05 600.24 274.85 600.3C274.91 600.14 274.92 599.95 274.99 599.8C274.92 599.95 274.9 600.14 274.85 600.3C274.05 600.25 273.27 600.2 272.51 600.07Z" fill="#003382"/>
<path d="M8.41992 106.91H17.6899V159.04H8.41992V106.91Z" fill="#231F20"/>
<path d="M57.9295 106.88L59.1895 109.92V159.03H51.2295V106.87H57.9295V106.88ZM60.6495 113.47L69.8895 133.65V152.28L60.6495 131.28V113.47ZM71.3595 155.97V106.89H79.0495V159.05H72.5895L71.3595 155.98V155.97Z" fill="#231F20"/>
<path d="M110.58 106.91H136.15V113.87H110.58V106.91ZM128.05 115.34V159.04H118.78V115.34H128.05Z" fill="#231F20"/>
<path d="M167.68 159.04V106.91H176.92V159.04H167.68ZM178.39 106.91H188.66V113.37H178.39V106.91ZM178.39 128.76H185.26V135.34H178.39V128.76ZM178.39 152.57H188.66V159.03H178.39V152.57Z" fill="#231F20"/>
<path d="M220.72 159.04V106.91H229.96V159.04H220.72ZM231.42 128.88H234.32C235.31 128.88 236.12 128.6 236.72 128.05C237.32 127.5 237.79 126.81 238.12 126.02C238.45 125.23 238.67 124.38 238.78 123.5C238.89 122.62 238.94 121.86 238.94 121.22C238.94 120.58 238.89 119.79 238.79 118.94C238.69 118.08 238.49 117.27 238.19 116.5C237.89 115.73 237.46 115.08 236.9 114.55C236.34 114.02 235.62 113.76 234.72 113.76H231.41V106.92H232.7C235.16 106.92 237.35 107.19 239.27 107.72C241.19 108.25 242.81 109.08 244.13 110.19C245.45 111.3 246.44 112.71 247.13 114.43C247.81 116.15 248.15 118.2 248.15 120.57C248.15 121.76 248.1 122.97 248 124.2C247.9 125.43 247.65 126.61 247.22 127.75C246.79 128.89 246.15 129.95 245.27 130.94C244.39 131.93 243.16 132.77 241.58 133.47L248.98 159.04H239.53L233.47 134.73H231.39V128.88H231.42Z" fill="#231F20"/>
<path d="M294.23 113.17C293.24 113.29 292.43 113.62 291.82 114.15C291.21 114.68 290.72 115.36 290.37 116.15C290.02 116.95 289.78 117.82 289.67 118.77C289.55 119.71 289.49 120.66 289.49 121.59V144.38C289.49 145.32 289.55 146.26 289.67 147.2C289.79 148.14 290.02 149.02 290.37 149.82C290.72 150.62 291.2 151.29 291.82 151.82C292.44 152.35 293.24 152.68 294.23 152.8V160C291.54 159.92 289.3 159.39 287.52 158.41C285.74 157.42 284.3 156.13 283.22 154.52C282.14 152.91 281.37 151.05 280.92 148.92C280.47 146.79 280.25 144.53 280.25 142.13V123.88C280.25 121.44 280.47 119.15 280.92 117.01C281.37 114.87 282.13 112.99 283.22 111.38C284.3 109.77 285.74 108.49 287.53 107.53C289.33 106.57 291.56 106.05 294.23 105.95V113.18V113.17ZM295.7 105.95C298.18 106.05 300.27 106.54 301.97 107.43C303.68 108.31 305.06 109.51 306.11 111.03C307.16 112.54 307.92 114.32 308.38 116.37C308.84 118.42 309.07 120.63 309.07 123.01V126.99H300V122.54C300 121.51 299.95 120.46 299.85 119.41C299.75 118.36 299.55 117.39 299.25 116.51C298.95 115.63 298.52 114.89 297.95 114.3C297.38 113.71 296.63 113.34 295.7 113.2V105.95ZM295.7 152.78C296.64 152.64 297.39 152.28 297.95 151.7C298.51 151.12 298.95 150.38 299.25 149.51C299.55 148.63 299.76 147.66 299.86 146.6C299.97 145.54 300.02 144.47 300.02 143.4V138.43H309.06V142.44C309.02 144.7 308.79 146.87 308.37 148.95C307.95 151.03 307.23 152.87 306.22 154.48C305.21 156.09 303.85 157.39 302.14 158.39C300.43 159.38 298.28 159.93 295.69 160.03V152.8L295.7 152.78Z" fill="#231F20"/>
<path d="M355.67 160C353.66 159.94 351.91 159.66 350.43 159.17C348.95 158.67 347.68 157.99 346.64 157.14C345.6 156.28 344.74 155.27 344.08 154.1C343.42 152.93 342.9 151.65 342.52 150.27C342.14 148.89 341.88 147.42 341.74 145.87C341.6 144.32 341.54 142.73 341.54 141.09V106.92H350.81V141.06C350.81 142.97 350.86 144.64 350.97 146.06C351.08 147.49 351.3 148.68 351.64 149.64C351.98 150.6 352.47 151.34 353.1 151.86C353.73 152.38 354.59 152.69 355.66 152.81V160.01L355.67 160ZM357.13 152.84C358.26 152.78 359.14 152.5 359.78 151.99C360.41 151.49 360.89 150.75 361.2 149.78C361.51 148.81 361.7 147.61 361.77 146.15C361.84 144.69 361.87 143 361.87 141.05V106.91H371.11V141.08C371.11 142.72 371.05 144.32 370.92 145.88C370.79 147.44 370.54 148.91 370.17 150.31C369.8 151.71 369.29 152.98 368.65 154.14C368.01 155.3 367.17 156.31 366.13 157.17C365.09 158.03 363.84 158.71 362.36 159.2C360.88 159.7 359.13 159.97 357.12 160V152.83L357.13 152.84Z" fill="#231F20"/>
<path d="M404.43 159.04V106.91H413.67V159.04H404.43ZM415.14 152.57H424.97V159.03H415.14V152.57Z" fill="#231F20"/>
<path d="M451.18 106.91H476.75V113.87H451.18V106.91ZM468.64 115.34V159.04H459.37V115.34H468.64Z" fill="#231F20"/>
<path d="M522.28 160C520.27 159.94 518.52 159.66 517.04 159.17C515.56 158.67 514.29 157.99 513.25 157.14C512.21 156.28 511.35 155.27 510.69 154.1C510.03 152.93 509.51 151.65 509.13 150.27C508.75 148.89 508.49 147.42 508.35 145.87C508.21 144.32 508.15 142.73 508.15 141.09V106.92H517.42V141.06C517.42 142.97 517.47 144.64 517.58 146.06C517.69 147.49 517.91 148.68 518.25 149.64C518.59 150.6 519.08 151.34 519.71 151.86C520.34 152.38 521.2 152.69 522.27 152.81V160.01L522.28 160ZM523.74 152.84C524.87 152.78 525.75 152.5 526.39 151.99C527.03 151.48 527.5 150.75 527.81 149.78C528.12 148.81 528.31 147.61 528.38 146.15C528.45 144.69 528.48 143 528.48 141.05V106.91H537.72V141.08C537.72 142.72 537.66 144.32 537.53 145.88C537.4 147.44 537.15 148.91 536.78 150.31C536.41 151.71 535.9 152.98 535.26 154.14C534.62 155.3 533.78 156.31 532.74 157.17C531.7 158.03 530.45 158.71 528.97 159.2C527.49 159.7 525.74 159.97 523.73 160V152.83L523.74 152.84Z" fill="#231F20"/>
<path d="M571.04 159.04V106.91H580.28V159.04H571.04ZM581.74 128.88H584.64C585.63 128.88 586.44 128.6 587.04 128.05C587.64 127.49 588.11 126.81 588.44 126.02C588.77 125.23 588.99 124.38 589.1 123.5C589.21 122.62 589.26 121.86 589.26 121.22C589.26 120.58 589.21 119.79 589.11 118.94C589.01 118.08 588.81 117.27 588.51 116.5C588.21 115.73 587.78 115.08 587.22 114.55C586.66 114.02 585.94 113.76 585.04 113.76H581.73V106.92H583.02C585.48 106.92 587.67 107.19 589.59 107.72C591.51 108.25 593.13 109.08 594.45 110.19C595.77 111.3 596.76 112.71 597.45 114.43C598.14 116.15 598.47 118.2 598.47 120.57C598.47 121.76 598.42 122.97 598.32 124.2C598.22 125.43 597.97 126.61 597.54 127.75C597.12 128.89 596.47 129.95 595.59 130.94C594.71 131.93 593.48 132.77 591.9 133.47L599.3 159.04H589.85L583.79 134.73H581.71V128.88H581.74Z" fill="#231F20"/>
<path d="M644.52 126.45L642 141.95H647.32L648.11 147.36H641.32L639.07 159.03H629.91L640.97 106.9L644.51 126.44L644.52 126.45ZM642.5 106.91H649.58L660.64 159.04H651.72L645.93 125.84L642.51 106.91H642.5Z" fill="#231F20"/>
<path d="M692.46 106.91H701.73V159.04H692.46V106.91Z" fill="#231F20"/>
<path d="M747.55 160.03C745.33 159.91 743.41 159.41 741.79 158.51C740.17 157.61 738.82 156.46 737.72 155.03C736.63 153.6 735.79 152 735.22 150.2C734.65 148.41 734.29 146.54 734.15 144.61L743.42 142.74C743.46 143.83 743.54 144.93 743.67 146.03C743.8 147.13 744.01 148.14 744.31 149.07C744.61 150 745.02 150.79 745.54 151.45C746.06 152.12 746.72 152.55 747.54 152.77V160.02L747.55 160.03ZM744.07 134.94L741.96 132.95C740.98 132.09 740.03 131.2 739.11 130.29C738.18 129.38 737.35 128.37 736.62 127.28C735.89 126.19 735.3 124.98 734.86 123.64C734.42 122.3 734.2 120.8 734.2 119.12C734.2 117.17 734.51 115.41 735.14 113.84C735.77 112.27 736.65 110.92 737.79 109.79C738.93 108.66 740.29 107.76 741.89 107.11C743.49 106.46 745.24 106.07 747.17 105.95V113.06C746.53 113.12 745.96 113.3 745.47 113.6C744.98 113.9 744.58 114.28 744.26 114.73C743.94 115.18 743.7 115.7 743.54 116.28C743.38 116.87 743.31 117.48 743.31 118.12C743.31 119 743.42 119.82 743.65 120.58C743.87 121.34 744.19 122.05 744.59 122.72C744.99 123.39 745.46 124.01 745.99 124.61C746.53 125.2 747.11 125.77 747.73 126.32C748 126.58 748.37 126.92 748.84 127.36C749.31 127.8 749.79 128.25 750.3 128.72L744.07 134.95V134.94ZM751.33 129.73L752.41 130.7C753.68 131.87 754.87 133.06 755.99 134.28C757.11 135.5 758.09 136.79 758.92 138.16C759.75 139.53 760.41 141 760.89 142.58C761.38 144.16 761.62 145.89 761.62 147.79C761.62 149.69 761.29 151.28 760.63 152.76C759.97 154.24 759.07 155.52 757.92 156.58C756.78 157.64 755.44 158.47 753.91 159.08C752.38 159.69 750.75 160.02 749.01 160.07V152.93C749.67 152.89 750.23 152.75 750.69 152.49C751.15 152.23 751.52 151.9 751.82 151.47C752.12 151.04 752.32 150.55 752.45 149.99C752.58 149.43 752.64 148.83 752.64 148.16C752.64 147.07 752.46 146.01 752.1 144.99C751.74 143.97 751.26 142.99 750.67 142.05C750.07 141.11 749.4 140.22 748.64 139.37C747.88 138.52 747.1 137.72 746.3 136.99L745.13 135.91L751.33 129.74V129.73ZM748.64 105.92C750.44 105.96 752.1 106.31 753.63 106.99C755.16 107.66 756.49 108.58 757.62 109.72C758.75 110.87 759.65 112.23 760.33 113.8C761 115.37 761.38 117.06 761.46 118.88V119.96L752.07 121.42C752.07 121.15 752.08 120.86 752.1 120.57C752.12 120.28 752.13 119.98 752.13 119.66C752.09 118.99 752 118.31 751.87 117.61C751.73 116.91 751.53 116.26 751.27 115.65C751.01 115.04 750.66 114.52 750.23 114.07C749.8 113.62 749.28 113.31 748.65 113.13V105.9L748.64 105.92Z" fill="#231F20"/>
</svg>
